<svg width="19" height="23" viewBox="0 0 19 23" fill="none" xmlns="http://www.w3.org/2000/svg">
<path d="M15.7173 12.2598C15.7173 12.3574 15.5708 15.2383 18.7446 16.752C18.1587 18.5586 16.1079 22.5625 13.7153 22.5625C12.3481 22.5625 11.5669 21.6836 10.0044 21.6836C8.39307 21.6836 7.51416 22.5625 6.29346 22.5625C3.94971 22.6602 1.70361 18.2656 1.06885 16.459C0.580566 15.0918 0.385254 13.7734 0.385254 12.5039C0.385254 8.1582 3.26611 6.05859 6.00049 6.00977C7.31885 6.00977 8.979 6.9375 9.71143 6.9375C10.395 6.9375 12.2993 5.81445 14.0571 5.96094C15.8638 6.10742 17.231 6.79102 18.1587 8.10938C16.5474 9.13477 15.7173 10.4531 15.7173 12.2598ZM12.9829 4.25195C12.0063 5.375 10.8345 6.00977 9.56494 5.91211C9.46729 4.59375 9.95557 3.37305 10.8345 2.39648C11.6157 1.51758 12.9829 0.785156 14.1548 0.6875C14.1548 1.22461 14.3013 2.68945 12.9829 4.25195Z" fill="white"/>
</svg>
