<svg width="50" height="51" viewBox="0 0 50 51" fill="none" xmlns="http://www.w3.org/2000/svg">
<g clip-path="url(#clip0_105_9809)">
<path d="M25 50.1419C38.3828 50.1419 49.2317 39.293 49.2317 25.9102C49.2317 12.5274 38.3828 1.67847 25 1.67847C11.6172 1.67847 0.76825 12.5274 0.76825 25.9102C0.76825 39.293 11.6172 50.1419 25 50.1419Z" stroke="#6F6E6F"/>
<path d="M10.1839 25.9121C10.1839 17.7288 16.8174 11.0954 25.0009 11.0951C33.1839 11.0954 39.817 17.7286 39.8174 25.9121C39.817 34.0951 33.1839 40.7282 25.0009 40.7287C16.8174 40.7282 10.1839 34.0951 10.1839 25.9121ZM15.1149 16.0265C12.5843 18.5578 11.0206 22.0501 11.0203 25.9121C11.0206 29.7739 12.5843 33.2664 15.1149 35.7975C17.6463 38.3278 21.1386 39.8918 25.0009 39.8922C28.8623 39.8918 32.3547 38.3278 34.886 35.7975C37.4165 33.2664 38.9803 29.7739 38.9806 25.9121C38.9803 22.0501 37.4165 18.5578 34.886 16.0265C32.3547 13.4958 28.8623 11.9322 25.0009 11.9318C21.1386 11.9322 17.6463 13.4958 15.1149 16.0265Z" fill="#6F6E6F"/>
<path d="M10.19 25.9112H25.008V11.0951H25.007C16.8238 11.0954 10.1905 17.7282 10.19 25.9112Z" fill="#0066AD"/>
<path d="M39.8142 25.9037H24.9962V40.7295H24.9972C33.1802 40.7292 39.8137 34.0867 39.8142 25.9037Z" fill="#0066AD"/>
<path d="M42.1694 12.2099L38.8674 14.3943L40.4299 11.3552C40.0237 10.8753 39.4088 10.3708 39.4088 10.3708L36.3944 11.8843L38.6064 8.64103C38.2391 8.33271 37.8142 8.07628 37.4067 7.7671L34.3108 12.596C34.3108 12.596 34.897 12.9409 35.6144 13.6033L38.8184 11.9459L37.1402 15.0994C37.5176 15.498 37.8536 15.981 38.2033 16.4121L43.0798 13.3959C43.0797 13.3959 42.7812 12.9267 42.1694 12.2099ZM25.3436 8.91726L26.8295 5.63407L26.9638 9.79632C27.5622 9.82296 28.445 10.0481 28.445 10.0481L28.1783 4.15286C27.0579 3.98999 26.1638 3.94543 26.1638 3.94543L24.7323 7.50657L23.3344 3.97412C23.3344 3.97412 22.4111 4.06409 21.2905 4.22679L21.0223 10.1675C21.0223 10.1675 21.9068 9.91156 22.5052 9.8851L22.6315 5.65916L24.1211 8.91709L25.3436 8.91726ZM12.7686 10.8475L12.7688 10.8415C12.8409 10.5768 12.8383 10.2973 12.7614 10.034C12.6844 9.7707 12.5361 9.5338 12.3329 9.34954C11.7301 8.79964 10.8321 8.78103 9.87381 9.73742C9.87381 9.73742 8.10749 11.5085 6.91089 13.2431L11.2082 17.162L14.4468 13.5313C15.1514 12.7529 15.1789 11.6506 14.5344 11.0624C14.0525 10.6237 13.3538 10.5613 12.7686 10.8475ZM8.62342 12.9539C10.1458 11.068 10.7553 10.5526 10.7553 10.5526C11.1544 10.2073 11.4496 10.177 11.6891 10.3954C11.9288 10.6136 11.8986 11.038 11.622 11.3429L9.47039 13.7259L8.62342 12.9539ZM13.4611 12.7954L11.2014 15.3042L10.352 14.5298L12.6119 12.0212C12.8881 11.7161 13.3026 11.6417 13.5372 11.8556C13.7718 12.0695 13.7375 12.4905 13.4611 12.7954Z" fill="#6F6E6F"/>
</g>
<defs>
<clipPath id="clip0_105_9809">
<rect width="50" height="50" fill="white" transform="translate(0 0.910156)"/>
</clipPath>
</defs>
</svg>
