<svg width="70" height="70" viewBox="0 0 70 70" fill="none" xmlns="http://www.w3.org/2000/svg">
<g clip-path="url(#clip0_105_13)">
<path fill-rule="evenodd" clip-rule="evenodd" d="M58.5948 8.4934V9.7096L34.9993 5.57437L11.4055 9.7096V8.4934L34.9993 4.33093L58.5948 8.4934Z" fill="white"/>
<path fill-rule="evenodd" clip-rule="evenodd" d="M58.5948 7.24963V8.49343L34.9993 4.33097L11.4055 8.49343V7.24963L34.9993 3.08826L58.5948 7.24963Z" fill="#33A457"/>
<path fill-rule="evenodd" clip-rule="evenodd" d="M58.5948 9.70969L34.9993 5.57446L11.4055 9.70969L11.4059 13.9056L11.6104 13.7897C11.6935 13.7432 20.0657 9.10141 35.0447 9.10141C50.0247 9.10141 58.2992 13.7443 58.3831 13.7904L58.5854 13.9067L58.5948 9.70969Z" fill="#CC2131"/>
<path fill-rule="evenodd" clip-rule="evenodd" d="M35.045 9.91223C48.5718 9.91223 56.4925 13.7188 57.7763 14.3863V26.4655C57.7763 33.0509 56.2252 39.6113 53.1682 45.9679C46.4767 59.852 36.408 65.3037 34.9996 66.0151C33.5903 65.3037 23.5138 59.852 16.8242 45.9679C13.7672 39.6113 12.2165 33.0509 12.2165 26.4655V14.3877C13.5119 13.721 21.5158 9.91223 35.045 9.91223Z" fill="#FFF22D"/>
<path fill-rule="evenodd" clip-rule="evenodd" d="M11.6107 13.7893L11.4063 13.9051V26.4655C11.4063 33.1744 12.9835 39.8539 16.0942 46.3176C23.3969 61.4793 34.7185 66.7831 34.8319 66.8351L34.9996 66.9117L35.167 66.8351C35.2814 66.7831 46.5937 61.4778 53.896 46.3176C57.0082 39.8539 58.5857 33.1744 58.5857 26.4655V13.9062L58.3834 13.79C58.2999 13.7439 50.0251 9.10095 35.045 9.10095C20.066 9.10095 11.6939 13.7428 11.6107 13.7893ZM35.045 9.91224C48.5718 9.91224 56.4925 13.7188 57.7763 14.3863V26.4655C57.7763 33.0509 56.2252 39.6113 53.1682 45.9679C46.4767 59.852 36.4079 65.3037 34.9996 66.0151C33.5902 65.3037 23.5138 59.852 16.8242 45.9679C13.7671 39.6113 12.2165 33.0509 12.2165 26.4655V14.3877C13.5118 13.721 21.5157 9.91224 35.045 9.91224Z" fill="black"/>
<path fill-rule="evenodd" clip-rule="evenodd" d="M38.588 54.31C38.9809 54.5816 38.6958 55.0534 38.4049 55.1271C38.1021 55.2095 37.8431 54.8732 37.6964 55.2418C37.614 55.4398 37.8377 56.9392 39.3716 56.9392C40.8036 56.9392 41.4866 55.1009 41.6214 54.8242C41.7568 54.5482 41.844 54.196 41.7085 54.196C41.0803 54.196 40.8972 54.5689 40.8972 54.5689C40.8972 54.5689 40.8497 54.2101 41.162 53.9392C41.4195 53.7181 41.7572 53.7718 41.8792 53.7718C42.1352 53.7718 42.0949 53.5811 42.2496 53.2038C42.6023 52.3159 42.8448 52.276 43.074 51.8711C43.2639 51.5413 42.9051 51.412 42.1973 51.3456C41.4874 51.278 41.1072 51.3067 40.7901 51.3528C40.4724 51.3982 40.1561 51.5271 39.9589 52.013C39.8532 52.2763 40.0467 52.5356 40.4186 52.4684C40.7901 52.3991 41.1478 52.118 41.1478 52.118C41.1478 52.118 40.9804 52.7833 40.4259 52.9209C39.9117 53.0473 39.3045 52.7372 39.3862 52.2168C39.4926 51.5417 39.9592 51.0471 40.8105 50.8804C41.6631 50.7086 42.5129 50.8401 43.2708 51.0264C44.0262 51.217 44.5822 51.1015 45.2845 51.0605C46.7989 50.9795 47.7372 50.6222 47.7372 50.6222C47.7372 50.6222 47.0549 51.176 46.1089 51.432C45.1628 51.6902 44.3192 51.5831 44.0462 51.6902C43.8257 51.7846 43.5141 52.2222 43.2574 52.7223C43.0213 53.182 42.77 53.7119 42.8786 53.7119C43.7582 53.7453 44.0803 53.5528 44.0803 53.5528C44.0803 53.5528 43.9063 53.9323 43.4873 54.1117C43.1964 54.2294 42.7028 54.2294 42.7028 54.2294C42.7028 54.2294 42.481 54.7912 42.2311 55.2981C41.9794 55.8047 41.5673 56.596 40.8253 56.9875C40.0805 57.3783 38.6562 57.8656 37.7592 56.5753C36.8103 55.2219 37.6764 53.6821 38.588 54.31ZM27.5753 54.4865C27.7504 54.9346 27.3785 55.1681 27.1624 55.1681C26.9456 55.1681 26.6758 55.0072 26.6195 55.2782C26.5679 55.5469 27.1951 56.9331 28.6543 56.9331C30.1141 56.9331 30.7907 56.0884 30.6879 55.3315C30.5735 54.4868 29.2317 54.1513 28.1622 53.5888C27.6389 53.3142 26.4561 53.1305 26.4561 52.0232C26.4561 49.6591 30.0539 51.1691 30.0539 51.1691C30.0539 51.1691 30.0615 50.8735 30.2289 50.8597C30.3099 50.852 30.4726 50.8201 30.5267 51.0874C30.5801 51.3568 30.8179 52.7768 30.8179 52.7768C30.8179 52.7768 30.2892 51.6957 28.838 51.2236C28.5813 51.1335 27.4588 50.92 27.4653 51.8086C27.4787 52.3363 28.1219 52.573 29.2368 53.0059C30.7021 53.5804 31.4527 54.1153 31.1066 55.6558C30.7773 57.135 29.3312 57.3783 28.6281 57.3783C27.9265 57.3783 26.3119 56.8862 26.3119 55.2633C26.3119 54.1157 27.4377 54.1426 27.5753 54.4865ZM35.2629 45.5972L35.8538 45.8772C36.1944 46.009 36.4119 45.9509 36.49 45.9182C36.5725 45.8827 36.8844 45.5478 36.9523 45.2628C36.9843 45.1465 36.9672 45.0456 36.9055 44.9711C36.6756 44.6988 36.2685 43.4477 36.1174 42.7715C36.0615 42.5206 36.1294 41.828 36.1821 41.2706C36.2282 40.792 36.2565 40.4945 36.2325 40.4179C36.1922 40.2995 36.0154 40.1851 35.812 40.0562L35.4899 39.8369C35.3181 39.6963 35.3105 39.505 35.3011 39.2994L35.2669 38.9802C35.1921 38.6831 33.6803 37.139 33.4461 37.1248C33.1065 37.1027 33.0183 37.4753 32.9965 37.6994C32.983 37.8305 33.1345 38.4159 33.271 38.9348L33.4217 39.5605C33.5764 40.5443 34.6223 42.2769 35.0683 43.0163L35.28 43.3758C35.3715 43.5843 35.3359 43.7488 35.1732 43.841C35.0153 43.9318 33.656 43.7898 33.0067 43.6402C32.7278 43.5763 32.3835 43.4372 32.0476 43.301C31.663 43.1477 31.2984 42.9989 31.0878 42.9883C30.8419 42.9756 30.7253 43.0254 30.6349 43.0671L30.4875 43.1082L30.3407 43.0613C30.1606 42.9818 29.824 42.8365 28.9048 42.7534C27.5652 42.6277 27.4646 42.8972 27.4101 43.0428C27.3436 43.228 28.1626 44.0988 28.3089 44.2154C28.4952 44.3658 29.0977 44.5949 29.4655 44.5339C29.8861 44.4664 30.5717 44.3814 30.6567 44.3984L30.7947 44.4827L30.9229 44.5735C31.0391 44.6211 31.7879 44.6621 32.0142 44.6741C32.2753 44.6882 32.9609 44.8302 33.462 44.9352L34.022 45.0481C34.2414 45.0884 34.8064 45.3673 35.2629 45.5972Z" fill="black"/>
<path fill-rule="evenodd" clip-rule="evenodd" d="M49.1216 28.2228C49.0918 28.1861 49.0671 28.1839 49.0515 28.1879C49.0373 28.1926 49.0181 28.2061 49.0126 28.2497C48.9879 28.4363 48.7537 28.916 48.5678 28.9869C48.1912 29.1325 47.9962 29.5741 47.8549 29.8958C47.7826 30.0618 47.7122 30.2201 47.6562 30.2223C47.6323 30.2241 47.6058 30.1983 47.5767 30.1446C47.3447 29.7444 47.4747 29.1325 47.5789 28.6393L47.6029 28.5184C47.6878 28.1026 48.1745 27.5201 48.4654 27.1707L48.5939 27.016C48.7918 26.7691 48.8416 25.9324 48.8045 25.8696C48.7926 25.8659 48.7846 25.8728 48.7798 25.8801C48.7753 25.8837 48.7715 25.8881 48.7686 25.8932L48.7642 25.8924V25.8968C48.7522 25.9099 48.7421 25.9113 48.7323 25.9534C48.6803 26.2149 48.2024 26.7462 47.3861 27.4522C47.2186 27.5971 47.028 27.8589 46.8718 28.0692C46.7712 28.2072 46.6532 28.3662 46.622 28.3739C46.4197 27.2946 46.7858 26.6776 46.9597 26.3794L47.0407 26.228C47.3861 25.2881 48.2754 24.5764 48.2849 24.5698C48.2969 24.5426 48.2969 24.5135 48.2751 24.495C48.2409 24.4689 48.1785 24.4801 48.08 24.5295L48.0263 24.5564C47.7162 24.7071 46.7807 25.1629 46.2069 26.2603C45.7947 27.0505 45.6353 27.9337 45.6353 28.5997C45.6353 28.9397 45.6763 29.2215 45.7461 29.4081C45.9476 29.9456 46.3006 31.2813 46.4092 31.8057C46.4767 32.1307 46.4873 33.2467 46.4873 33.9461C46.4873 34.2878 46.4858 34.5271 46.4858 34.5362C46.4836 34.5362 46.3079 35.1035 46.3079 35.1035C46.3071 35.1093 46.2222 35.5523 45.498 36.2928C44.7688 37.0376 43.9568 37.2744 43.9495 37.2773C43.6234 37.3027 43.326 37.2893 43.3155 37.2468C43.3155 36.3956 41.8578 34.4153 41.1119 33.762C40.3507 33.0949 39.7424 32.6169 38.7089 31.988C37.6565 31.3474 36.486 28.6618 36.4726 28.6357L36.3713 28.2729C36.3713 28.2729 36.3146 27.5484 36.299 27.3599C36.3371 27.3817 36.3869 27.4126 36.3869 27.4126L36.7457 27.6214L37.1578 27.7797C37.1615 27.7808 37.6975 27.8858 37.6975 27.8858C37.6975 27.8869 37.9975 28.0405 37.9975 28.0405L38.2756 28.2213L38.7081 28.5336L39.1523 28.7672C39.1614 28.7697 39.6858 28.7966 39.6858 28.7966L39.6977 28.7534C39.6977 28.7534 39.0905 28.4683 39.0891 28.4683C39.0891 28.4596 38.8705 28.0855 38.8705 28.0855C38.7855 27.9635 38.7006 27.8413 38.6159 27.7191C38.6076 27.7133 38.3003 27.5299 38.3003 27.5299C38.1703 27.5101 38.04 27.4917 37.9096 27.4747C37.9096 27.4714 37.8329 27.4057 37.7934 27.3701C37.8275 27.3501 37.8918 27.3102 37.8918 27.3102C37.8918 27.3149 38.3101 27.3632 38.3116 27.3632C38.3116 27.3676 38.6838 27.6207 38.6838 27.6207L39.0902 27.9337C39.0967 27.937 39.4748 28.0837 39.4748 28.0837L39.5245 28.1033L39.3586 27.6715C39.2548 27.5721 39.1503 27.4735 39.0452 27.3756L38.5847 26.9841C38.581 26.9808 38.223 26.7963 38.223 26.7963C38.2193 26.7956 37.8373 26.6667 37.8373 26.6667C37.8373 26.666 37.4331 26.4081 37.4331 26.4081C37.4331 26.4081 37.4375 26.3805 37.4404 26.3569C37.4916 26.3765 38 26.5806 38 26.5806C38.0029 26.581 38.4874 26.7128 38.4874 26.7128C38.4866 26.711 38.8937 26.8682 38.8937 26.8682C38.8923 26.8668 39.478 27.1526 39.478 27.1526C39.4831 27.1551 39.9683 27.2604 39.9683 27.2604C39.9766 27.2608 40.5668 27.1551 40.5668 27.1551C40.5744 27.1515 41.1369 26.76 41.1369 26.76C41.1435 26.7495 41.247 26.5167 41.247 26.5167L41.2691 26.4629L41.0883 26.5378C41.0868 26.5378 40.5777 26.7963 40.5769 26.7963L40.2243 26.8751C40.2243 26.8733 39.8263 26.7952 39.8256 26.7952H39.8263C39.8263 26.7905 39.5035 26.4902 39.5035 26.4902L39.0452 26.0464L38.6308 25.8343C38.625 25.8318 38.1405 25.7533 38.1405 25.7533C38.1405 25.7523 37.8457 25.6023 37.8406 25.5997C37.842 25.5997 37.8428 25.5943 37.8428 25.5867C37.8428 25.5511 37.8337 25.4734 37.83 25.437L38.4394 25.4882L39.1069 25.4345C39.1069 25.4363 39.4828 25.5129 39.4828 25.5129L39.863 25.6698L40.2523 25.7225L40.3224 25.7319L39.8884 25.3168C39.884 25.3147 39.4508 25.0016 39.4508 25.0016C39.4457 24.9991 39.0876 24.868 39.0876 24.868C39.0811 24.8665 38.4841 24.816 38.4721 24.815C38.4772 24.8146 38.4779 24.8044 38.4779 24.7895C38.4779 24.7532 38.4721 24.7017 38.4688 24.6751L38.751 24.6272C38.751 24.629 39.2028 24.7307 39.2028 24.7307C39.2028 24.7322 39.6306 24.9889 39.6306 24.9889L40.0929 25.1469C40.1063 25.1472 40.768 25.0434 40.768 25.0434L40.8075 25.0379L40.606 24.7717C40.5947 24.763 40.2621 24.6595 40.2614 24.6595C40.2614 24.6577 39.9868 24.4547 39.9868 24.4547L39.5775 24.1671C39.5717 24.1638 39.2663 24.06 39.2663 24.06C39.2612 24.0581 38.7797 23.9812 38.7782 23.9808C38.7782 23.9757 38.5415 23.7578 38.5364 23.7542C38.5436 23.7527 38.5585 23.6768 38.564 23.6423L38.8185 23.7135L39.1461 23.8697L39.6113 24.0171L39.5085 23.8119L39.3277 23.6231L39.1694 23.419L39.238 23.4019C39.238 23.4081 39.733 23.6605 39.733 23.6605L40.1186 23.792C40.1186 23.7941 40.4164 24.0734 40.4164 24.0734C40.4208 24.077 40.9844 24.3952 40.9844 24.3952L41.041 24.4271L40.9383 24.1518C40.9354 24.1457 40.6296 23.7546 40.6296 23.7546L40.375 23.3144C40.3728 23.3093 39.912 22.8405 39.912 22.8405C39.9076 22.8361 39.3212 22.5227 39.3197 22.5227C39.3197 22.5202 39.0964 22.2671 39.0964 22.2671C38.9597 22.128 38.8232 21.9887 38.6871 21.8491C38.6871 21.8436 38.6453 21.7006 38.6239 21.6279C38.6933 21.6501 39.0212 21.759 39.0212 21.759L39.4802 21.8887C39.4802 21.8898 39.8078 22.0938 39.8078 22.0938C39.8078 22.096 40.0809 22.4276 40.0809 22.4276C40.0907 22.4352 40.5257 22.6182 40.5257 22.6182L41.6344 22.7621L41.6991 22.77L41.3948 22.4497C41.3871 22.4439 40.7995 22.1828 40.7995 22.1828L40.4469 21.9257C40.4469 21.921 40.2497 21.5673 40.2497 21.5673L40.0442 21.2027C40.0406 21.1972 39.7086 20.8845 39.7086 20.8845C39.7036 20.8809 39.295 20.6463 39.295 20.6463L38.8908 20.31C38.8908 20.3068 38.7935 20.1052 38.7314 19.9709L39.0121 20.2414L39.5485 20.711C39.555 20.715 39.9643 20.8976 39.9643 20.8976L40.3147 21.1809L40.7218 21.5963C40.736 21.6029 41.3722 21.6926 41.3722 21.6926L41.4518 21.7042L40.8057 21.1446C40.8057 21.1344 40.6597 20.6859 40.6597 20.6859C40.548 20.5772 40.4352 20.4696 40.3213 20.3631L40.1455 20.1564C40.1455 20.151 39.9705 19.6175 39.9705 19.6175C39.8501 19.4922 39.7288 19.3679 39.6066 19.2445C39.6066 19.2416 39.023 18.6973 39.0216 18.6951V18.694C39.0216 18.6857 39.0008 18.6025 38.9889 18.5477C39.0335 18.5702 39.0945 18.6025 39.0945 18.6025L39.6302 18.9144C39.6353 18.917 40.273 19.0993 40.273 19.0993L40.9383 19.2569L41.7071 19.3796L41.5262 19.0139C41.5135 19.0023 41.1311 18.8465 41.1311 18.8465L40.7763 18.6395C40.7727 18.6384 40.3394 18.4554 40.3394 18.4554L39.9578 18.2993C39.9578 18.2956 39.7101 17.9761 39.5721 17.7996C39.7046 17.8885 39.9091 18.0276 39.9091 18.0276C39.9189 18.0309 40.253 18.0574 40.253 18.0574L41.3007 18.0578C41.3007 18.0607 41.7249 18.2898 41.7249 18.2905C41.7249 18.292 42.0866 18.682 42.0866 18.682L42.1341 18.7332L42.0902 18.2931C42.0858 18.2804 41.856 17.9931 41.856 17.9931C41.8494 17.988 41.2353 17.6489 41.2353 17.6489L40.7473 17.4651C40.7436 17.464 40.0082 17.334 40.0046 17.334V17.3329C40.0046 17.326 39.8641 17.1586 39.8641 17.1586C39.8612 17.1571 39.3259 16.6618 39.3259 16.6618C39.2394 16.6166 39.1526 16.5719 39.0655 16.5278C39.0655 16.5263 38.9838 16.4425 38.9329 16.3894H39.2082C39.2082 16.3938 39.6302 16.6473 39.6302 16.6473C39.6338 16.6498 40.1971 16.8314 40.1971 16.8314L40.9158 16.9363H40.915C40.915 16.944 41.1816 17.2425 41.1816 17.2425L41.5702 17.4811C41.7176 17.5083 41.8651 17.5345 42.0128 17.5599L42.0746 17.5697L41.1652 16.4555C41.1594 16.4501 40.7247 16.2158 40.7247 16.2158C40.7211 16.2137 40.2112 16.0571 40.2112 16.0571C40.2112 16.0517 39.7624 15.5426 39.7624 15.5426C39.7573 15.5371 39.1951 15.199 39.1951 15.199C39.0593 15.1646 38.9231 15.1315 38.7866 15.0995C38.812 15.0585 38.8966 14.919 38.8966 14.9183C38.8981 14.9223 39.3469 14.7193 39.3469 14.7193C39.3469 14.7204 40.005 14.5907 40.005 14.5907C40.0228 14.5755 40.0725 14.4182 40.0725 14.4182C40.0642 14.3917 39.7831 14.2094 39.7831 14.2094C39.6709 14.173 39.5586 14.1372 39.4461 14.1019C39.4254 14.1045 39.2474 14.2087 39.2474 14.2094C39.2474 14.2062 38.6969 14.2312 38.6969 14.2312C38.6969 14.2309 38.0389 14.0761 38.0389 14.0754C38.0389 14.0722 37.3608 13.5071 37.3608 13.5071C37.2571 13.4537 37.1531 13.4006 37.0489 13.348C37.0413 13.3466 35.9213 13.2155 35.9184 13.2155C35.9184 13.2013 35.6551 12.8084 35.6551 12.8084L35.2949 12.4147C35.2934 12.4125 34.8362 12 34.8362 12L34.822 12.0301L34.6688 12.3693C34.6695 12.3661 34.5177 12.6007 34.5177 12.6007V12.6065C34.5177 12.6497 34.5391 12.8763 34.5391 12.8763C34.5457 12.8905 34.6938 13.0423 34.6971 13.0466C34.6895 13.0466 34.6412 13.2827 34.6412 13.2845C34.6397 13.2681 34.0267 13.2932 34.0256 13.2932C34.0256 13.2903 33.5249 13.0604 33.5249 13.0604C33.5216 13.0582 33.1377 12.9282 33.1377 12.9282C33.1301 12.9257 32.2371 12.9533 32.2371 12.9533C32.2175 12.9634 32.0661 13.198 32.0661 13.198L32.0457 13.2289L32.4387 13.2856C32.4387 13.287 32.4968 13.3241 32.5291 13.3448L32.4285 13.4268C32.4285 13.4217 31.882 13.3967 31.882 13.3967C31.8729 13.3981 31.4883 13.5539 31.4883 13.5539L31.4483 13.571L31.639 13.6992C31.651 13.7036 32.4677 13.7293 32.4677 13.7293L33.0742 13.8855V13.8862C33.0742 13.8946 33.1897 14.0594 33.1897 14.0594C33.1897 14.0594 33.2717 14.1753 33.3026 14.2207L33.043 14.3638C33.0462 14.3634 32.305 14.6761 32.305 14.6761L30.7729 15.5364C30.7714 15.5349 29.764 15.6853 29.764 15.6853C29.7564 15.6878 29.3697 15.9032 29.3697 15.9032C29.3613 15.909 29.0508 16.3393 29.0508 16.3393C29.0475 16.3448 28.8718 16.8804 28.8718 16.8804C28.858 17.7905 28.8943 17.8115 28.9074 17.8188C28.9375 17.8377 29.2004 17.9866 29.4038 17.8776C29.634 17.7524 30.1268 17.6292 30.3829 17.5748C30.5092 17.549 30.5684 17.5944 30.579 17.6412C30.5928 17.6924 30.5546 17.7622 30.4602 17.7879L30.4072 17.8036C29.962 17.9245 29.5077 18.0708 29.5225 18.2426L29.601 18.3737C29.7996 18.5186 30.316 18.45 30.5902 18.3879L30.8764 18.3076C31.1233 18.2324 31.404 18.1486 31.6437 18.1754C31.7821 18.1914 31.9041 18.251 32.0483 18.3189C32.2437 18.4133 32.467 18.5204 32.8 18.5422C33.3553 18.5807 33.7344 18.6929 33.7642 18.7256C33.8386 18.877 33.7907 19.1011 33.7533 19.2812L33.7246 19.4443C33.5692 20.8537 31.9956 22.4472 31.2374 23.2116C31.0325 23.4186 30.8971 23.5552 30.868 23.6122L30.7809 23.8137C30.7072 24.0008 30.6472 24.162 30.4068 24.2586C30.2677 24.3127 29.9434 24.5568 29.5672 24.8386C29.0239 25.2438 28.3503 25.7479 28.1647 25.7261C27.8542 25.6894 26.4041 24.6911 26.3431 24.6297C24.9308 23.2632 24.34 23.5436 23.9863 23.7106L23.9303 23.7368C23.5091 23.9285 23.0668 25.1218 23.0268 25.3778L22.8561 26.1129L22.725 26.6529C22.6862 26.8355 22.5122 27.2844 22.3463 27.718L22.0056 28.6622C21.9493 28.8808 21.8128 29.1881 21.7017 29.4364L21.551 29.8043C21.446 30.2361 21.4442 32.601 21.6269 32.8101L21.6349 32.8189L21.6708 32.8294C21.8542 32.8105 22.2479 32.4049 22.4367 32.2091L22.4803 32.1637C22.6401 32.0032 22.8097 31.5747 22.8097 31.3946C22.8097 31.2181 22.7272 30.8491 22.6945 30.7485C22.4389 29.9677 22.5355 29.2236 22.582 28.867L22.6005 28.708C22.6139 28.5424 22.7799 28.359 22.9411 28.1832L23.1448 27.9475C23.2567 27.7986 23.3809 27.7492 23.4917 27.7053L23.6736 27.6014L23.7019 27.572C23.8225 27.4511 24.0248 27.247 24.1134 26.9739L24.2862 26.2262L24.324 26.0264C24.3327 25.9865 24.3531 25.9643 24.3868 25.9571C24.4555 25.9418 24.5582 25.9963 24.6022 26.0548L25.8522 27.5052C26.1725 27.7779 26.5015 28.1033 26.5015 28.1749L26.5011 28.181C26.5011 28.1799 26.4935 28.1814 26.4935 28.1814C26.3184 28.1995 25.4378 28.0118 25.2914 27.97C24.0949 27.6192 23.5487 27.681 23.1274 28.2083C22.6473 28.8122 22.7984 30.6617 22.8964 30.8644C22.9865 31.0481 23.4245 33.3015 23.4441 33.6018C23.4637 33.8963 23.5777 34.4229 23.6968 34.5438L23.7295 34.5772C23.877 34.7232 24.2655 35.1136 24.3342 35.4986C24.4083 35.9176 25.2983 37.0398 25.6379 37.1404C25.6633 37.1478 25.6902 37.149 25.7162 37.1439C25.7422 37.1389 25.7667 37.1277 25.7875 37.1113C26.0464 36.9276 26.1641 36.0295 26.1783 35.6504C26.195 35.1779 26.0254 34.9495 25.8453 34.7051L25.7763 34.6096C25.6437 34.4287 25.4102 34.363 25.2562 34.3198C25.1905 34.3013 25.1004 34.2795 25.1004 34.2591C25.1004 34.2522 25.0823 33.5601 24.8615 33.4264C24.6897 33.3207 24.5139 32.6529 24.4932 32.3987C24.4733 32.1463 24.3756 31.5369 24.2445 31.2693C24.1119 31.0006 24.0004 30.5052 24.0571 30.1232C24.0807 29.959 24.1976 29.9075 24.2928 29.8926C24.4569 29.8664 24.6465 29.9372 24.6759 29.9946C24.7413 30.1261 26.0032 30.8872 26.4288 31.0507C26.6932 31.1509 27.0509 31.453 27.3669 31.7225C27.5917 31.911 27.7849 32.0733 27.9054 32.131C28.0681 32.2095 28.5293 32.2186 28.8997 32.2258C29.0962 32.2291 29.3003 32.2338 29.3279 32.2502C29.1776 32.3104 29.1794 32.5741 29.1917 32.6591C29.3453 33.7496 33.3128 36.7453 33.6196 36.9134C33.9748 37.1041 35.2487 38.4343 35.3602 38.6152C35.4757 38.7938 35.5879 38.9881 35.5665 39.1377C35.536 39.3589 35.6246 39.6116 35.8018 39.8179C35.9714 40.01 36.1926 40.1259 36.397 40.1259C36.5743 40.1259 36.6926 39.9668 36.7802 39.852L36.7987 39.8281C37.0355 39.5147 37.3866 39.0557 37.432 38.3377C37.4803 37.6016 37.8166 37.3092 37.9263 37.29C37.9753 37.2809 38.0113 37.2958 38.0243 37.3281C38.0378 37.3615 38.0214 37.4175 37.955 37.4614C37.8097 37.5598 37.7189 37.8856 37.6194 38.2338C37.6187 38.2367 37.5824 38.5894 37.5824 38.5894C37.574 38.8527 37.5639 39.1512 37.3009 39.4406C36.9073 39.8669 36.4555 40.85 36.3386 42.0913C36.2678 42.839 36.6044 43.9161 37.3387 45.2888L37.3899 45.3869L37.5885 45.7202C37.7894 46.0431 38.1249 46.5798 38.1093 46.7055C38.0879 46.8827 38.0712 47.0218 37.7654 47.4056C37.4291 47.8276 36.202 49.2555 36.0822 49.2781C35.8381 49.2781 35.7971 49.3093 35.6006 49.4582L35.3936 49.6158C35.167 49.7767 35.1275 49.8972 35.0893 50.0036C35.0614 50.0839 35.0349 50.154 34.9295 50.2328L34.8507 50.2858C34.8344 50.3 34.7901 50.3624 34.2969 50.856C33.7315 51.4149 33.4791 52.0475 33.5663 52.6761C33.5942 52.8726 33.7635 52.9412 34.2653 52.9641C34.7665 52.9873 35.9155 52.1833 35.9667 51.9215L35.9845 51.8216C36.0284 51.5855 36.1022 51.1875 36.2322 51.1301C36.3891 51.0615 36.6578 50.7514 36.855 50.5259L36.8931 50.4834C36.9981 50.3621 37.0235 50.2415 37.0485 50.1267C37.07 50.036 37.0896 49.9444 37.1491 49.8609C37.196 49.7999 37.2646 49.7665 37.3441 49.7298C37.4967 49.6568 37.6888 49.5639 37.8271 49.2163C37.9648 48.8757 38.7862 48.2863 39.3862 47.8574C39.6927 47.6395 39.9331 47.4652 39.9904 47.3886C40.0692 47.2858 40.1175 47.0879 40.1175 46.878C40.1175 46.6289 40.0507 46.3638 39.8942 46.2163C39.6665 46.005 39.4522 45.376 39.3883 45.1788V45.1744C39.3883 45.0927 39.3807 44.9431 39.3684 44.6646C39.3669 44.6518 39.3669 44.6384 39.3669 44.6264C39.3669 43.8896 40.4622 43.1687 40.935 42.8582L41.1507 42.7093C42.8652 41.1972 43.2007 40.0474 43.2643 39.7318L43.2991 39.3538C43.3097 39.092 43.3184 38.8425 43.4764 38.8098C43.5381 38.7978 43.6409 38.8476 43.7033 38.922C43.7389 38.9623 43.7912 39.0462 43.7563 39.1432C43.6783 39.3553 43.6521 41.4873 43.6514 41.5759C43.6572 41.5908 43.8359 41.8015 43.8359 41.8015L43.8686 41.8396L43.8784 41.7898C43.8805 41.7651 43.979 41.1841 43.979 40.9786C43.979 40.7487 44.3486 39.7642 44.438 39.7471C44.438 39.75 44.4438 39.7584 44.4438 39.7584C44.487 39.8945 44.5422 40.2308 44.5422 40.5853C44.5422 40.9335 44.4895 41.2996 44.3203 41.5117C44.0636 41.8294 43.8591 42.3324 43.7258 42.6643L43.6024 42.9465C43.5884 42.9856 43.5824 43.0271 43.5846 43.0685C43.5846 43.3387 43.7237 43.9146 43.8152 44.0218C43.8391 44.0472 43.8584 44.0472 43.8718 44.0425C43.9016 44.0312 43.9285 43.9927 43.9285 43.7665C43.9285 42.9047 44.6526 42.2797 44.6613 42.275C45.2997 41.7684 45.4388 40.8289 45.4388 40.1132C45.4388 39.5713 45.3593 39.1577 45.3571 39.1464C45.2562 38.9967 45.154 38.8478 45.0506 38.6998C45.0655 38.707 45.1487 38.6388 45.1763 38.6166C45.2039 38.6522 45.4948 39.0379 45.4948 39.0379C45.5438 39.1065 45.668 39.3066 45.668 39.3861C45.668 39.8295 45.7363 40.1331 45.7849 40.3557L45.7969 40.4084C45.8481 40.6445 46.1673 41.3987 46.1815 41.431L46.2156 41.5106L46.2261 41.4241C46.2261 41.4205 46.2766 41.0261 46.2261 40.6888C46.1971 40.4996 46.2334 40.2675 46.2701 40.0169L46.3282 39.4417C46.3282 38.9743 46.2614 38.6791 46.0947 38.4103L46.0097 38.2814C45.9763 38.2288 45.9436 38.1772 45.9472 38.1667L46.0097 38.1398C47.3581 37.6822 47.9856 36.6893 48.2413 36.1395C48.5093 35.557 48.5235 34.66 48.5235 34.4875C48.5235 34.2628 48.5137 33.097 48.3179 32.4982C48.2032 32.1448 48.2398 31.7654 48.2783 31.3557L48.3201 30.6545C48.3201 30.1747 48.5725 29.8185 48.8172 29.4742L49.1089 29.0225C49.2995 28.6462 49.1982 28.3168 49.1216 28.2228Z" fill="black"/>
<path fill-rule="evenodd" clip-rule="evenodd" d="M34.0285 13.2075C34.0511 13.209 34.3376 13.0728 34.3376 13.0728C34.3503 13.047 34.2838 12.7758 34.2838 12.7758C34.077 12.5305 33.8692 12.2861 33.6603 12.0425L33.6294 12.0066L33.6189 12.0516L33.5521 12.3454C33.5525 12.3425 33.3542 12.8168 33.3542 12.8168L33.3451 12.8368L33.7627 13.0503L34.0285 13.2075Z" fill="black"/>
<path fill-rule="evenodd" clip-rule="evenodd" d="M34.1528 15.0898C34.2189 15.1145 34.3187 15.1036 34.4132 15.0614C34.5577 14.9935 34.643 14.8773 34.6064 14.7942L34.5399 14.7342C34.4745 14.7092 34.3747 14.7204 34.2817 14.7633C34.1579 14.8185 34.0787 14.9104 34.0787 14.9885C34.0787 15.0026 34.0827 15.0179 34.0874 15.0299L34.1528 15.0898ZM36.6473 14.0602L36.7664 14.1245C36.7759 14.1451 36.79 14.1633 36.8076 14.1778C36.8251 14.1923 36.8456 14.2026 36.8677 14.208C36.8931 14.2133 36.9193 14.2128 36.9445 14.2065C36.9697 14.2003 36.9931 14.1883 37.013 14.1717C37.0449 14.1467 37.0526 14.0998 37.0322 14.0406C37.0003 13.9422 36.8975 13.8347 36.7867 13.8347C36.644 13.8347 36.5136 13.8511 36.5136 13.9564C36.514 14.0156 36.5819 14.0381 36.6473 14.0602ZM36.79 14.4811C36.7348 14.5218 36.7105 14.5766 36.7261 14.6322L36.7373 14.6783C36.7515 14.7328 36.7566 14.7441 36.8067 14.7499L36.8975 14.7662C37.0137 14.796 37.1975 14.7237 37.2392 14.6307C37.2534 14.6006 37.2646 14.5421 37.1855 14.4869C37.0493 14.3962 36.8815 14.4158 36.79 14.4811ZM37.1615 16.0975C37.1281 16.0815 37.1423 16.0285 37.168 15.9515C37.1887 15.8887 37.2076 15.8284 37.1753 15.7954C37.147 15.7681 37.0965 15.7703 37.0108 15.8023C36.7021 15.9134 36.6549 16.2279 36.6208 16.4578L36.6102 16.5286C36.5924 16.631 36.6451 16.6659 36.6778 16.6775C36.7842 16.7152 36.9763 16.6186 37.0195 16.5449C37.0678 16.4654 37.3344 16.3928 37.5287 16.3397L37.6031 16.3194C37.6932 16.2947 37.7393 16.2602 37.7458 16.2134C37.7556 16.152 37.6877 16.0961 37.6274 16.0601C37.5715 16.0271 37.4883 16.0507 37.4012 16.0757C37.3148 16.0993 37.2218 16.1237 37.1615 16.0975ZM33.8989 16.2156C33.9672 16.2087 34.0206 16.1821 34.0544 16.1335C34.1528 15.9868 34.1579 15.779 34.0623 15.5906C33.9701 15.4108 33.8121 15.2957 33.6509 15.2899L33.6531 15.2906L33.6178 15.2859L33.3208 15.3091C33.1639 15.344 33.0183 15.4598 32.9831 15.5739C32.9653 15.6316 32.9754 15.6843 33.015 15.7238C33.2532 15.9762 33.6647 16.2333 33.8989 16.2156ZM30.9737 15.9766C31.0093 16.0641 31.1724 16.0739 31.4117 16.0027L31.4643 15.9868L31.8932 15.819L32.5146 15.4104C32.5327 15.3963 32.6951 15.2743 32.6617 15.1962C32.6381 15.145 32.5571 15.1541 32.4986 15.1649C32.3272 15.1962 32.1591 15.2786 31.98 15.3658L31.7273 15.4831L31.6158 15.5288C31.2312 15.6879 30.916 15.8306 30.9737 15.9766ZM29.6671 16.4313C29.5378 16.4313 29.4797 16.5014 29.4325 16.5635L29.3748 16.6288C29.2753 16.7142 29.2448 16.9204 29.2571 17.0773C29.2622 17.1427 29.2807 17.2611 29.345 17.2988C29.4681 17.3747 29.5269 17.3214 29.6526 17.2019L29.7499 17.1183C29.8734 17.0149 30.0168 16.8976 30.0346 16.7171C30.0433 16.6408 30.0252 16.578 29.9827 16.5308C29.9071 16.4487 29.7691 16.4313 29.6671 16.4313ZM30.3818 16.4883C30.3447 16.4803 30.3226 16.4919 30.311 16.5039C30.2736 16.5406 30.2888 16.619 30.3004 16.6818L30.3077 16.7258L30.3001 16.7523C30.2917 16.7748 30.2823 16.8035 30.3001 16.8278C30.3161 16.8522 30.3549 16.8627 30.421 16.8627C30.5049 16.8634 30.5133 16.8547 30.5416 16.7799L30.5641 16.7221C30.5844 16.6713 30.5848 16.6256 30.5655 16.5892C30.531 16.5253 30.4453 16.501 30.3818 16.4883ZM31.0729 17.6082C31.1167 17.6062 31.1581 17.5874 31.1884 17.5556C31.2188 17.5239 31.2357 17.4816 31.2357 17.4377C31.2357 17.3938 31.2188 17.3516 31.1884 17.3199C31.1581 17.2881 31.1167 17.2693 31.0729 17.2672C31.0507 17.2674 31.0288 17.2719 31.0084 17.2806C30.9879 17.2892 30.9694 17.3018 30.9539 17.3176C30.9384 17.3335 30.9261 17.3522 30.9179 17.3728C30.9096 17.3934 30.9055 17.4154 30.9058 17.4376C30.9058 17.5316 30.9803 17.6082 31.0729 17.6082ZM34.1862 17.1928C34.1622 17.1883 34.1374 17.1905 34.1146 17.1991C34.0917 17.2077 34.0717 17.2223 34.0565 17.2415C34.0104 17.2952 33.7297 17.4877 33.5245 17.6286L33.2598 17.8167L33.2384 17.8374C33.2053 17.8686 33.189 17.8879 33.2104 17.9525L33.2427 17.9979L33.3124 17.9837L33.4156 17.9456L33.5641 17.9224C33.7105 17.9035 33.8706 17.8817 33.9461 17.8043L34.0446 17.6435L34.1909 17.4085C34.261 17.3312 34.2646 17.2781 34.2548 17.248C34.2492 17.2336 34.2398 17.221 34.2278 17.2113C34.2158 17.2016 34.2014 17.1952 34.1862 17.1928ZM34.4938 18.1421C34.4938 18.2289 34.537 18.263 34.5613 18.275C34.6271 18.3099 34.7215 18.2761 34.7778 18.1976L34.9681 18.032C35.0712 17.958 35.1863 17.8744 35.2884 17.7448C35.3828 17.6231 35.3421 17.5483 35.3083 17.5164C35.2437 17.4532 35.1108 17.4387 35.0657 17.4757L35.0109 17.5131C34.8863 17.5941 34.5915 17.7855 34.5174 18.0182C34.5027 18.0579 34.4948 18.0998 34.4938 18.1421ZM35.7336 18.0484C35.6947 17.9917 35.6279 17.9681 35.5782 17.9925L35.4441 18.0941C35.3497 18.1711 35.2321 18.2688 35.13 18.2975C34.8823 18.364 34.5464 18.4747 34.5257 18.6447L34.5254 18.6668C34.5254 18.7137 34.5464 18.7416 34.5668 18.7573C34.6608 18.8339 34.8892 18.7885 35.0545 18.726C35.308 18.6323 35.4619 18.5179 35.6609 18.3371C35.7833 18.2256 35.7779 18.1141 35.7336 18.0484ZM34.7705 20.0058L34.6899 19.9967C34.4814 20.0523 34.1255 20.6653 33.8757 21.1221L33.831 21.2013L33.0822 22.6067L32.8472 23.0541C32.8211 23.0948 32.8302 23.1543 32.8694 23.1932C32.9057 23.2295 32.9693 23.2495 33.0462 23.2008C33.1712 23.1176 33.6269 22.6655 33.8383 22.3104L34.1197 21.9221C34.3002 21.6865 34.5058 21.4228 34.6263 21.1087L34.6688 21.0005C34.9546 20.2593 34.9993 20.146 34.7705 20.0058ZM37.5864 17.3043C37.5651 17.3038 37.5439 17.3075 37.524 17.3152C37.5041 17.323 37.4859 17.3345 37.4705 17.3492C37.4551 17.364 37.4428 17.3816 37.4342 17.4011C37.4256 17.4206 37.4209 17.4417 37.4204 17.463C37.4204 17.5505 37.4949 17.6217 37.5864 17.6217C37.6779 17.6217 37.7509 17.5505 37.7509 17.463C37.7506 17.4417 37.746 17.4208 37.7376 17.4013C37.7291 17.3818 37.7169 17.3642 37.7016 17.3494C37.6863 17.3347 37.6683 17.3231 37.6485 17.3154C37.6287 17.3076 37.6076 17.3039 37.5864 17.3043ZM37.5076 17.9663C37.5076 18.0542 37.582 18.1254 37.6735 18.1254C37.6947 18.1256 37.7156 18.1217 37.7352 18.1138C37.7548 18.106 37.7726 18.0943 37.7877 18.0795C37.8028 18.0647 37.8148 18.0471 37.8231 18.0277C37.8313 18.0083 37.8357 17.9874 37.8359 17.9663C37.8354 17.9237 37.818 17.883 37.7876 17.8532C37.7572 17.8234 37.7162 17.8069 37.6735 17.8073C37.6305 17.8066 37.5889 17.8229 37.5579 17.8527C37.5268 17.8825 37.5087 17.9233 37.5076 17.9663ZM37.6601 18.3182C37.5566 18.3182 37.4709 18.3868 37.4709 18.4689C37.4709 18.5521 37.5566 18.62 37.6601 18.62C37.7651 18.62 37.85 18.5524 37.85 18.4689C37.8504 18.3868 37.7651 18.3182 37.6601 18.3182ZM37.6525 18.7583C37.5334 18.7583 37.4382 18.8335 37.4382 18.9261C37.4382 19.018 37.5334 19.0932 37.6525 19.0932C37.7716 19.0932 37.8653 19.0176 37.8653 18.9261C37.8653 18.8335 37.7716 18.7583 37.6525 18.7583ZM37.6601 19.3169C37.529 19.3169 37.4204 19.395 37.4204 19.4934C37.4204 19.5903 37.529 19.6684 37.6601 19.6684C37.7919 19.6684 37.8983 19.5903 37.8983 19.4934C37.8983 19.395 37.7919 19.3169 37.6601 19.3169ZM37.5791 20.2531C37.728 20.24 37.8373 20.1583 37.829 20.0639L37.7821 19.9782C37.7309 19.935 37.6416 19.9132 37.5508 19.9215C37.407 19.9346 37.3006 20.0123 37.3006 20.1013L37.3013 20.1104L37.3496 20.1957C37.4019 20.24 37.4873 20.2618 37.5791 20.2531ZM37.5708 20.841C37.7375 20.8163 37.8551 20.7248 37.8417 20.6304L37.7927 20.552C37.7346 20.5073 37.6303 20.4895 37.5239 20.5051C37.3601 20.528 37.2396 20.6213 37.253 20.7157L37.3035 20.7938C37.3623 20.8389 37.4644 20.8559 37.5708 20.841ZM37.2901 21.1247C37.2901 21.2274 37.415 21.3095 37.5788 21.3095C37.7418 21.3095 37.8653 21.2274 37.8653 21.1247C37.8653 21.0219 37.7418 20.9409 37.5788 20.9409C37.4146 20.9413 37.2901 21.0219 37.2901 21.1247ZM37.8006 21.7257C37.8006 21.6167 37.6518 21.5336 37.4615 21.5336C37.2734 21.5336 37.1245 21.6167 37.1245 21.7257C37.1245 21.8339 37.2734 21.9185 37.4615 21.9185C37.6518 21.9185 37.8006 21.8339 37.8006 21.7257ZM37.5842 22.233C37.5842 22.1266 37.4727 22.0405 37.338 22.0405C37.2011 22.0405 37.0896 22.1266 37.0896 22.233C37.0896 22.3394 37.2011 22.4258 37.338 22.4258C37.4731 22.4258 37.5842 22.3394 37.5842 22.233ZM37.468 22.8674C37.468 22.748 37.3503 22.6495 37.204 22.6495C37.0595 22.6495 36.9422 22.748 36.9422 22.8674C36.9422 22.988 37.0591 23.085 37.204 23.085C37.3503 23.085 37.468 22.988 37.468 22.8674ZM37.2537 23.4848C37.2537 23.3773 37.1571 23.292 37.0395 23.292C36.9225 23.292 36.8238 23.3769 36.8238 23.4848C36.8238 23.5905 36.9222 23.6769 37.0395 23.6769C37.1571 23.6773 37.2537 23.5905 37.2537 23.4848ZM36.8826 23.8501C36.7693 23.8501 36.6756 23.9362 36.6756 24.043C36.6756 24.1486 36.7693 24.2347 36.8826 24.2347C36.9955 24.2347 37.0881 24.1483 37.0881 24.043C37.0885 23.9362 36.9955 23.8501 36.8826 23.8501ZM36.7076 24.7765C36.8238 24.7765 36.9225 24.7017 36.9225 24.6091C36.9225 24.5165 36.8241 24.4428 36.7076 24.4428C36.5906 24.4428 36.4948 24.5169 36.4948 24.6091C36.4948 24.7014 36.5906 24.7765 36.7076 24.7765ZM36.5104 25.1822C36.6182 25.1822 36.7068 25.1193 36.7068 25.0402C36.7068 24.9614 36.6197 24.8989 36.5104 24.8989C36.3974 24.8989 36.3117 24.961 36.3117 25.0402C36.3117 25.1193 36.4003 25.1822 36.5104 25.1822ZM36.319 25.5722C36.4218 25.5722 36.5089 25.5086 36.5089 25.4298C36.5089 25.3518 36.4218 25.2882 36.319 25.2882C36.2133 25.2882 36.1298 25.3518 36.1298 25.4298C36.1294 25.5086 36.2133 25.5722 36.319 25.5722ZM30.7199 25.2268L30.754 25.2334L31.0126 25.1869C31.2421 25.1361 31.5878 25.0587 32.0131 25.0474C32.3239 25.0391 32.6609 25.1477 32.9057 25.2276C33.128 25.3016 33.2387 25.3336 33.2808 25.2878C33.3074 25.2577 33.291 25.2138 33.2765 25.1829C33.2097 25.0387 32.917 24.5648 31.9619 24.543C31.3412 24.5289 30.8354 24.9508 30.7271 25.1291C30.7057 25.1655 30.6999 25.1923 30.7108 25.2123L30.7199 25.2268ZM34.2715 27.0223C34.3322 26.9834 34.3583 26.9148 34.3543 26.8164C34.334 26.43 34.2305 26.386 34.0173 26.386C33.8012 26.386 33.6451 26.6028 33.6451 26.7154C33.6451 26.8211 33.7228 26.9137 33.8735 26.9892C33.9589 27.0343 34.1553 27.0985 34.2715 27.0223ZM37.2018 31.7458C37.5098 31.8896 37.618 31.9408 37.6641 31.955C37.6656 31.955 37.667 31.9593 37.667 31.9593C37.667 31.9593 37.6692 31.9575 37.6692 31.9568C37.6906 31.9633 37.6975 31.9608 37.7026 31.9535C37.6997 31.9513 37.6877 31.9332 37.6812 31.9281C37.6848 31.9252 37.6884 31.9176 37.6884 31.9176C37.6884 31.9176 37.6692 31.9096 37.6677 31.9078C37.464 31.6507 36.2373 29.9064 35.9762 28.7585C35.9351 28.5693 35.8868 28.3932 35.7634 28.3227C35.694 28.2839 35.6065 28.281 35.5001 28.3165H35.4993C35.4747 28.3238 35.4569 28.3441 35.4456 28.3739C35.4351 28.4062 35.4305 28.4402 35.4322 28.4742C35.4322 28.8842 35.869 30.0128 36.0118 30.2449C36.8013 31.5265 37.1869 31.7371 37.2018 31.7458ZM47.2292 32.2444L47.1824 32.2535C47.1838 32.2608 47.1943 32.6032 47.1943 33.043C47.1943 33.6843 47.1722 34.5395 47.0611 34.9238C46.971 35.235 46.5581 35.8309 46.2247 36.3077C46.2247 36.3077 45.8369 36.8895 45.8369 36.8902C45.8258 36.9097 45.8202 36.9318 45.8205 36.9542C45.8205 37.0115 45.8496 37.0656 45.9008 37.0994C45.9396 37.1263 46.0802 37.1953 46.2759 36.9618L46.5236 36.6999C46.8541 36.3702 47.2648 35.9609 47.5542 35.0574C47.8716 34.0656 47.2346 32.2615 47.2292 32.2444ZM36.8979 35.4758C36.9276 35.5055 36.9759 35.5139 37.0264 35.4957C37.0653 35.4823 37.0994 35.4578 37.1246 35.4253C37.1498 35.3928 37.165 35.3537 37.1684 35.3127C37.1804 35.1885 37.2668 35.0218 37.3954 34.8795C37.4624 34.8033 37.4972 34.7042 37.4926 34.6028C37.488 34.5015 37.4443 34.4059 37.3707 34.3362L37.2062 34.2704C37.1005 34.2741 37.0217 34.3587 37.0173 34.3612C36.9622 34.6251 36.9083 34.8892 36.8557 35.1536V35.1529C36.8401 35.1969 36.8259 35.4068 36.8979 35.4758ZM42.2471 38.4006L42.2387 38.397L42.2304 38.4006C42.2239 38.4057 42.0859 38.47 42.0466 38.6047C42.0198 38.6955 42.0699 38.7743 42.1091 38.8393L42.1552 38.9257L42.1752 39.0982L42.2064 39.3521C42.2142 39.3783 42.2306 39.4012 42.2531 39.4169C42.2755 39.4326 42.3026 39.4402 42.3299 39.4385C42.3945 39.4363 42.4697 39.3866 42.4944 39.286C42.5278 39.1498 42.5442 38.9653 42.5442 38.7198C42.5434 38.4957 42.2598 38.4035 42.2471 38.4006ZM33.9447 36.3353C33.9262 36.3139 31.9651 34.1858 31.5413 33.6284C31.1095 33.0572 30.9033 33.0139 30.6919 33.1309C30.6763 33.1398 30.6631 33.1523 30.6535 33.1674C30.6438 33.1826 30.6379 33.1998 30.6364 33.2177C30.6059 33.4497 31.0957 34.0112 31.5246 34.4233C32.1242 35.0004 33.8953 36.3568 33.9135 36.3702L33.9447 36.3353ZM26.2585 30.0546C25.8613 29.808 25.1734 29.6711 25.1665 29.6682L25.1484 29.71L25.9114 30.2852C26.037 30.3883 26.5923 30.733 26.7717 30.5921C26.7833 30.5833 26.7926 30.5719 26.7988 30.5587C26.805 30.5455 26.8079 30.5311 26.8073 30.5165C26.8015 30.413 26.609 30.2747 26.2585 30.0546ZM26.0722 26.7989L26.126 26.7761C26.1946 26.6987 26.0367 26.479 25.8446 26.3014C25.6713 26.1416 25.4952 26.0385 25.403 26.0436L25.3507 26.0661C25.3395 26.0797 25.3338 26.0971 25.3347 26.1147C25.3347 26.215 25.472 26.3922 25.6314 26.5411C25.805 26.7009 25.9825 26.8047 26.0722 26.7989ZM28.111 26.5211L28.0329 26.5258C27.8847 26.5879 27.6494 26.9645 27.4617 27.4413C27.3295 27.778 27.2296 28.1451 27.2296 28.3663C27.2296 28.4713 27.2521 28.5424 27.3022 28.5635L27.3792 28.5588C27.5274 28.4956 27.762 28.1183 27.9519 27.6429C28.0838 27.3055 28.1825 26.9384 28.1825 26.7169C28.1825 26.6126 28.1611 26.5411 28.111 26.5211ZM24.441 24.1955C24.2496 24.1955 24.0971 24.2863 24.0971 24.401C24.0971 24.5151 24.2496 24.6048 24.441 24.6048C24.6353 24.6048 24.7863 24.5151 24.7863 24.401C24.7863 24.2863 24.6353 24.1955 24.441 24.1955ZM23.2204 26.7365L23.28 26.731C23.3835 26.6802 23.54 26.3987 23.658 26.0476C23.7829 25.6739 23.8512 25.2726 23.7303 25.2297L23.6718 25.2359C23.5665 25.2878 23.4103 25.5686 23.2934 25.9194C23.1663 26.2934 23.102 26.6947 23.2204 26.7365ZM23.54 28.6695C23.6417 28.5333 23.662 28.3801 23.5865 28.3227L23.4986 28.3038C23.4252 28.3133 23.3377 28.375 23.2723 28.4662C23.1707 28.6024 23.1503 28.7552 23.2255 28.8115L23.3137 28.8322C23.3867 28.821 23.4753 28.76 23.54 28.6695ZM23.423 30.7867L23.4147 30.7816L23.3766 30.7776C23.2393 30.8096 23.3359 31.4073 23.4067 31.7218C23.5073 32.1609 23.6435 32.5153 23.7379 32.5742L23.7459 32.58L23.7833 32.584C23.9227 32.552 23.824 31.9513 23.7535 31.6398C23.6536 31.1982 23.5189 30.8459 23.423 30.7867ZM22.0402 31.5893C21.9294 31.5893 21.8401 31.6714 21.8401 31.7738C21.8401 31.8711 21.9294 31.9532 22.0402 31.9532C22.1502 31.9532 22.2424 31.8711 22.2424 31.7738C22.2428 31.6714 22.1506 31.5893 22.0402 31.5893ZM25.4378 35.9282C25.3766 35.9279 25.3176 35.9519 25.2739 35.9948C25.2302 36.0377 25.2052 36.0961 25.2043 36.1574C25.2043 36.2809 25.3093 36.3829 25.4378 36.3829C25.4988 36.384 25.5577 36.3609 25.6017 36.3186C25.6456 36.2763 25.6711 36.2184 25.6724 36.1574C25.6716 36.0959 25.6464 36.0373 25.6024 35.9944C25.5585 35.9514 25.4993 35.9277 25.4378 35.9282ZM36.924 41.9733C36.9313 41.9846 36.9523 42.0223 36.9843 42.0187L36.9977 42.018L37.0224 41.9809L37.233 41.3389L37.3976 40.9111L37.5381 40.5857C37.5813 40.4764 37.5813 40.4034 37.5388 40.3609C37.4713 40.2992 37.3318 40.3518 37.3148 40.358C37.3035 40.3671 36.9189 41.0091 36.9189 41.0091C36.8437 41.1239 36.8154 41.2786 36.8154 41.4376C36.8154 41.6643 36.8721 41.8905 36.924 41.9733ZM37.8849 45.1807L37.8925 45.116C37.8976 45.0779 38.0131 44.1849 37.7386 43.8399C37.7105 43.8025 37.675 43.7714 37.6342 43.7486C37.5934 43.7257 37.5483 43.7117 37.5018 43.7074C37.4193 43.6997 37.3627 43.7237 37.3315 43.7756C37.164 44.0494 37.821 45.0808 37.85 45.1255L37.8849 45.1807ZM39.4229 46.8795C39.3915 46.8791 39.3604 46.8849 39.3313 46.8966C39.3022 46.9082 39.2757 46.9255 39.2533 46.9475C39.2309 46.9694 39.213 46.9955 39.2008 47.0244C39.1885 47.0532 39.182 47.0842 39.1817 47.1155C39.1817 47.2481 39.2896 47.3509 39.4229 47.3509C39.4854 47.3509 39.5453 47.326 39.5895 47.2818C39.6337 47.2376 39.6585 47.1777 39.6585 47.1152C39.6585 47.0527 39.6337 46.9927 39.5895 46.9485C39.5453 46.9043 39.4854 46.8795 39.4229 46.8795ZM35.8019 44.0033C35.6889 44.0033 35.5927 44.0912 35.5927 44.1998C35.5927 44.3113 35.6893 44.397 35.8019 44.397C35.9173 44.397 36.0103 44.3113 36.0103 44.1998C36.0103 44.0912 35.9173 44.0033 35.8019 44.0033ZM38.4405 47.486L38.4151 47.4802C38.2902 47.4802 37.8174 47.8938 37.4143 48.3063C37.3787 48.3441 36.5035 49.2418 36.6193 49.3587L36.6259 49.366L36.6542 49.3718C36.7806 49.3718 37.2527 48.9567 37.6536 48.5464C37.6913 48.5082 38.568 47.6138 38.4485 47.4925L38.4405 47.486ZM35.8124 49.9129C35.7394 49.9129 35.625 49.9812 35.523 50.0832C35.4009 50.2053 35.3123 50.3741 35.3777 50.4435L35.4423 50.4667C35.5168 50.4667 35.6315 50.3999 35.7332 50.2957C35.8523 50.1722 35.9438 50.007 35.8759 49.9369L35.8124 49.9129ZM34.6594 51.5743C34.5697 51.5743 34.4429 51.6481 34.3322 51.7603C34.2163 51.8765 34.1499 52.005 34.1499 52.0944C34.1499 52.1285 34.1589 52.1561 34.1804 52.1754L34.2621 52.2066C34.3503 52.2066 34.4807 52.1351 34.5893 52.0221C34.7502 51.8576 34.8148 51.6815 34.7418 51.6052L34.6594 51.5743ZM28.6314 43.2062C28.4585 43.2062 28.318 43.3046 28.318 43.4288C28.318 43.5523 28.4589 43.6474 28.6314 43.6474C28.8057 43.6474 28.9448 43.5523 28.9448 43.4288C28.9452 43.3046 28.8057 43.2062 28.6314 43.2062ZM31.1844 43.3849C31.0616 43.3849 30.9661 43.451 30.9661 43.5381C30.9661 43.6198 31.0616 43.687 31.1844 43.687C31.3027 43.687 31.4008 43.6195 31.4008 43.5381C31.4008 43.4528 31.3027 43.3849 31.1844 43.3849ZM34.3002 44.4275L34.3191 44.3984C34.3543 44.2517 33.6193 44.0226 33.2264 43.9231C32.7546 43.8025 32.1939 43.7059 32.0701 43.7803L32.0614 43.7862L32.0414 43.8167C32.0058 43.9648 32.7405 44.1911 33.1341 44.2938C33.6055 44.4122 34.1662 44.5059 34.2919 44.4322L34.3002 44.4275Z" fill="white"/>
</g>
<defs>
<clipPath id="clip0_105_13">
<rect width="70" height="70" fill="white"/>
</clipPath>
</defs>
</svg>
