<svg width="14" height="14" viewBox="0 0 14 14" fill="none" xmlns="http://www.w3.org/2000/svg">
<path d="M7.3707 4.00586C9.2164 4.00586 10.7398 5.5293 10.7398 7.375C10.7398 9.25 9.2164 10.7441 7.3707 10.7441C5.4957 10.7441 4.00155 9.25 4.00155 7.375C4.00155 5.5293 5.4957 4.00586 7.3707 4.00586ZM7.3707 9.57227C8.57187 9.57227 9.53866 8.60547 9.53866 7.375C9.53866 6.17383 8.57187 5.20703 7.3707 5.20703C6.14023 5.20703 5.17343 6.17383 5.17343 7.375C5.17343 8.60547 6.16952 9.57227 7.3707 9.57227ZM11.648 3.88867C11.648 4.32812 11.2965 4.67969 10.857 4.67969C10.4176 4.67969 10.066 4.32812 10.066 3.88867C10.066 3.44922 10.4176 3.09766 10.857 3.09766C11.2965 3.09766 11.648 3.44922 11.648 3.88867ZM13.8746 4.67969C13.9332 5.76367 13.9332 9.01562 13.8746 10.0996C13.816 11.1543 13.5816 12.0625 12.8199 12.8535C12.0582 13.6152 11.1207 13.8496 10.066 13.9082C8.98202 13.9668 5.73007 13.9668 4.64609 13.9082C3.5914 13.8496 2.6832 13.6152 1.89218 12.8535C1.13046 12.0625 0.896086 11.1543 0.837492 10.0996C0.778898 9.01562 0.778898 5.76367 0.837492 4.67969C0.896086 3.625 1.13046 2.6875 1.89218 1.92578C2.6832 1.16406 3.5914 0.929688 4.64609 0.871094C5.73007 0.8125 8.98202 0.8125 10.066 0.871094C11.1207 0.929688 12.0582 1.16406 12.8199 1.92578C13.5816 2.6875 13.816 3.625 13.8746 4.67969ZM12.4684 11.2422C12.8199 10.3926 12.732 8.3418 12.732 7.375C12.732 6.4375 12.8199 4.38672 12.4684 3.50781C12.234 2.95117 11.7945 2.48242 11.2379 2.27734C10.359 1.92578 8.3082 2.01367 7.3707 2.01367C6.4039 2.01367 4.35312 1.92578 3.50351 2.27734C2.91757 2.51172 2.47812 2.95117 2.24374 3.50781C1.89218 4.38672 1.98007 6.4375 1.98007 7.375C1.98007 8.3418 1.89218 10.3926 2.24374 11.2422C2.47812 11.8281 2.91757 12.2676 3.50351 12.502C4.35312 12.8535 6.4039 12.7656 7.3707 12.7656C8.3082 12.7656 10.359 12.8535 11.2379 12.502C11.7945 12.2676 12.2633 11.8281 12.4684 11.2422Z" fill="white"/>
<a href="https://www.figma.com/design/PzQUNVEIeMrv8HjdXbjYra?node-id=19-2551">
<rect fill="black" fill-opacity="0" x="0.178312" y="-1.125" width="13.125" height="17.25"/>
</a>
</svg>
