<svg width="70" height="69" viewBox="0 0 70 69" fill="none" xmlns="http://www.w3.org/2000/svg">
<path d="M33.6628 51.083C40.5477 45.7023 43.7835 38.7378 45.2241 33.2626C46.6976 27.6551 46.9219 22.2675 46.9167 22.0751L46.9074 21.7717L46.6797 21.5861C41.0694 16.4327 33.8259 13.6774 33.4846 13.5657L33.303 13.5056L33.122 13.5657C32.7807 13.6774 25.7119 16.4322 19.9269 21.5861L19.6986 21.7717L19.69 22.0751C19.6842 22.2675 19.8445 27.6711 21.3768 33.2626C22.7949 38.4337 25.8053 45.9067 32.9439 51.083L33.303 51.3435L33.6628 51.083Z" fill="#1A377A"/>
<path fill-rule="evenodd" clip-rule="evenodd" d="M33.3117 18.6287C32.1069 19.018 25.1424 21.3388 20.8995 24.4801C20.9122 26.7166 21.6627 41.22 33.3117 50.2293C44.6909 41.22 45.6928 26.7161 45.7061 24.4795C41.4632 21.3388 34.5166 19.018 33.3117 18.6287Z" fill="#CB9F18"/>
<path d="M33.0235 14.4722L33.0414 15.1518C32.7883 14.9766 32.4458 14.8833 32.051 14.8833C31.8653 14.8833 31.6244 14.9291 31.4203 15.0087L31.456 15.4742C31.6688 15.354 31.8671 15.3311 32.0688 15.3311C32.6482 15.3311 33.0592 15.7617 33.0592 16.3331C33.0592 16.9 32.6499 17.3352 32.0504 17.3352C31.8296 17.3352 31.5707 17.2951 31.4382 17.2275L31.4203 17.693C31.6255 17.7406 31.8371 17.7824 32.0504 17.7824C32.4355 17.7824 32.7825 17.697 33.0419 17.5316L33.0235 18.1402H33.5821V17.5499C33.8334 17.6965 34.1563 17.7824 34.5189 17.7824C34.7322 17.7824 34.9437 17.7406 35.149 17.6925L35.1317 17.2275C34.9991 17.2957 34.7397 17.3352 34.5189 17.3352C33.9199 17.3352 33.5636 16.9 33.5636 16.3331C33.5636 15.7605 33.9222 15.3311 34.501 15.3311C34.7028 15.3311 34.8999 15.354 35.1132 15.4742L35.1496 15.0087C34.9484 14.9305 34.7349 14.888 34.5189 14.8833C34.1476 14.8833 33.8288 14.9783 33.5821 15.1341V14.4722H33.2939H33.0235ZM33.2939 18.6235V20.4484L37.5812 20.1976C36.1715 19.6218 34.7415 19.0971 33.2939 18.6235ZM33.2939 20.4484V23.9733L40.1033 23.3475L45.6519 25.4764C45.6767 25.0383 45.6865 24.6936 45.6882 24.4743C45.0547 24.0059 44.36 23.561 43.6342 23.1327L40.1033 23.3291L33.2939 20.4484ZM33.2939 23.9733V27.5165L40.1033 26.6216L45.3458 28.447C45.4778 27.5452 45.5476 26.7493 45.5983 26.1028L40.1033 26.6038L33.2939 23.9733ZM33.2939 27.5165V31.0592L40.1033 29.914L44.8056 31.3638C44.9751 30.6114 45.1089 29.8991 45.2196 29.2338L40.1033 29.8785L33.2939 27.5165ZM33.2939 31.0592V34.5847L40.1033 33.1887L44.0308 34.2623C44.224 33.6376 44.3842 33.0284 44.5353 32.4369L40.1033 33.171L33.2939 31.0592ZM33.2939 34.5847V38.1274L40.1033 36.4634L43.0041 37.1431C43.1944 36.6718 43.3615 36.2092 43.5264 35.7477L40.1033 36.4451L33.2939 34.5847ZM33.2939 38.1274V41.6523L40.1033 39.7558L41.6707 40.0599C41.8097 39.7896 41.9376 39.5239 42.0673 39.2548L40.1033 39.7198L33.2939 38.1274ZM33.2939 41.6523V45.1955L39.8871 43.1015C39.913 43.0632 39.9344 43.0157 39.9591 42.9767L33.2939 41.6523ZM33.2939 45.1955V48.7382L36.1221 47.7184C36.6995 47.1391 37.2524 46.5362 37.7795 45.9113L33.2939 45.1955ZM33.2939 48.7382V50.2235C33.8313 49.8064 34.3539 49.3708 34.8607 48.9174L33.2939 48.7382Z" fill="#CB9F18"/>
<path d="M33.2939 18.6234C32.756 18.7963 31.0606 19.3529 28.9881 20.1981L33.2939 20.4483V18.6234ZM33.2939 20.4483L26.4833 23.329L22.9523 23.1326C22.226 23.5621 21.5325 24.0047 20.8989 24.4742C20.9001 24.6941 20.8914 25.0365 20.9168 25.4763L26.4833 23.3474L33.2933 23.9732L33.2939 20.4483ZM33.2939 23.9732L26.4833 26.6037L20.9721 26.1027C21.0223 26.7503 21.1093 27.5428 21.2419 28.4469L26.4844 26.6215L33.2944 27.5164L33.2939 23.9732ZM33.2944 27.5164L26.4833 29.8784L21.3491 29.2342C21.461 29.9002 21.6114 30.6085 21.7815 31.3632L26.4833 29.9145L33.2933 31.0597L33.2944 27.5164ZM33.2939 31.0591L26.4833 33.1709L22.034 32.419C22.185 33.0117 22.3626 33.6352 22.5563 34.2622L26.4833 33.1886L33.2933 34.5846L33.2939 31.0591ZM33.2939 34.5846L26.4839 36.4456L23.0434 35.747C23.2083 36.2108 23.3928 36.6689 23.5836 37.143L26.4839 36.4633L33.2939 38.1273V34.5846ZM33.2939 38.1273L26.4833 39.7197L24.5019 39.2547C24.6322 39.5256 24.7573 39.7872 24.898 40.0598L26.4833 39.7558L33.2933 41.6522L33.2939 38.1273ZM33.2939 41.6705L26.6101 42.976L26.6822 43.0837L33.2939 45.1954V41.6705ZM33.2939 45.1954L28.7898 45.9112C29.317 46.5359 29.87 47.1388 30.4472 47.7183L33.2939 48.7381V45.1954ZM33.2939 48.7381L31.7085 48.9351C32.2083 49.3811 32.7462 49.7997 33.2939 50.2234V48.7381Z" fill="#E3B80F"/>
<path d="M29.0059 20.2032C27.1255 20.9694 24.921 21.9754 22.9529 23.1378L26.4838 23.3348L33.2938 20.454L29.0059 20.2032ZM26.4838 23.3525L20.9352 25.482C20.9461 25.671 20.9536 25.8834 20.9715 26.1085L26.4838 26.6095L33.2938 23.979L26.4838 23.3525ZM26.4838 26.6272L21.2419 28.4521C21.2782 28.7041 21.3053 28.972 21.3497 29.2394L26.4838 29.8836L33.2938 27.5216L26.4838 26.6272ZM26.4838 29.9197L21.782 31.3689C21.8599 31.7148 21.9423 32.0635 22.0345 32.4248L26.4838 33.176L33.2938 31.0649L26.4838 29.9197ZM26.4838 33.1944L22.5574 34.268C22.7073 34.7547 22.8641 35.25 23.0434 35.7527L26.485 36.4513L33.2944 34.5904L26.4838 33.1944ZM26.4838 36.4685L23.5835 37.1487C23.8668 37.8621 24.1733 38.5662 24.5025 39.2599L26.4838 39.7254L33.2938 38.133L26.4838 36.4685ZM26.4838 39.7609L24.8985 40.0656C25.4177 41.0664 25.989 42.0398 26.6101 42.9818L33.2938 41.658L26.4838 39.7609ZM26.6821 43.0895C27.329 44.0715 28.0327 45.0154 28.7898 45.9164L33.2938 45.2006L26.6821 43.0895ZM30.4471 47.7241C30.8553 48.134 31.2646 48.5457 31.7085 48.9408L33.2938 48.7439L30.4471 47.7241Z" fill="#DA442D"/>
<path d="M37.5811 20.2032L33.2938 20.454L40.1032 23.3342L43.6342 23.1378C41.6672 21.9754 39.4622 20.97 37.5811 20.2032ZM40.1032 23.3525L33.2938 23.979L40.1032 26.6095L45.6161 26.1085C45.634 25.8806 45.6421 25.6733 45.6519 25.482L40.1032 23.3525ZM40.1032 26.6272L33.2938 27.5216L40.1032 29.8836L45.2195 29.2394C45.2645 28.9703 45.3089 28.7058 45.3458 28.4521L40.1032 26.6272ZM40.1032 29.9197L33.2938 31.0649L40.1032 33.1761L44.5352 32.4431C44.628 32.079 44.7266 31.7171 44.805 31.3689L40.1032 29.9197ZM40.1032 33.1944L33.2938 34.5898L40.1032 36.4507L43.5264 35.7527C43.7057 35.2489 43.8792 34.7576 44.0308 34.268L40.1032 33.1944ZM40.1032 36.4685L33.2938 38.133L40.1032 39.7249L42.0673 39.2599C42.4027 38.5666 42.7149 37.8625 43.0035 37.1487L40.1032 36.4685ZM40.1032 39.7609L33.2938 41.658L39.9591 42.9818C40.5804 42.04 41.1517 41.0666 41.6707 40.0656L40.1032 39.7609ZM39.8871 43.1072L33.2938 45.2006L37.7794 45.9164C38.5359 45.0211 39.2396 44.0832 39.8871 43.1072ZM36.122 47.7241L33.2938 48.7433L34.8607 48.9225C35.2933 48.5358 35.7139 48.1361 36.122 47.7241Z" fill="#C83E29"/>
<path d="M30.5555 54.5054L30.465 55.2211L32.2129 55.2039L32.285 54.5054H30.5555ZM9.8742 54.5237L9.20721 59.8202H10.9551L11.2255 57.6192H11.2428L12.3242 59.8019H14.2514L12.8465 57.0466L14.738 54.5237H12.9186L11.369 56.6349H11.3517L11.6036 54.5237H9.8742ZM44.0665 55.5074C43.294 55.5091 42.8138 55.7433 42.7158 56.5278L42.4276 58.8182C42.3198 59.6771 42.8138 59.8202 43.4364 59.8202H45.6697C46.3673 59.8185 46.8342 59.5952 46.9311 58.8182L46.9674 58.4958H45.2189C45.1521 58.8531 44.8482 58.9602 44.6609 58.9613C44.2037 58.9613 44.2009 58.608 44.2285 58.3887L44.2643 58.0841H47.0204L47.2187 56.5095C47.3196 55.705 46.8705 55.5074 46.1736 55.5074H44.0665ZM49.003 55.5074C48.351 55.5086 47.8915 55.7393 47.7958 56.5095L47.5254 58.7644C47.4274 59.5483 47.8246 59.767 48.4622 59.7664H49.0387C49.331 59.7658 49.6601 59.7292 49.9034 59.5156C50.0302 59.4057 50.0412 59.3627 50.2095 59.0329H50.228L50.0839 60.1781H47.4534L47.3456 61.2334H50.4442C50.9613 61.2334 51.7182 61.1498 51.8312 60.2497L52.4077 55.5429H50.6603L50.5883 56.1516H50.5704C50.4592 55.7805 50.2257 55.5068 49.633 55.5074H49.003ZM53.831 55.5074C53.3052 55.5635 52.9599 55.8355 52.8763 56.5095L52.5881 58.7644C52.4901 59.5483 52.9052 59.767 53.5428 59.7664H54.1014C54.3931 59.7664 54.7217 59.7114 54.9661 59.4979C55.0918 59.3879 55.1217 59.3627 55.2901 59.0329L55.1638 60.1598L52.5339 60.1781L52.4077 61.2334L55.5241 61.2162C56.0418 61.2151 56.7982 61.1498 56.9111 60.2497L57.4876 55.5429H55.7409L55.6504 56.1338C55.5391 55.7622 55.2878 55.5068 54.6957 55.5074H54.0829C54.0016 55.5074 53.9059 55.4994 53.831 55.5074ZM28.2133 55.5257C27.7042 55.5257 27.5226 55.6431 27.3307 55.7937C27.1704 55.9386 27.1416 55.9873 27.0424 56.2415H27.0246L27.0966 55.579H25.3487L24.8264 59.8019H26.5743L26.9162 57.0288C26.9364 56.8628 26.998 56.3852 27.4927 56.3846C28.0023 56.3835 27.9475 56.7958 27.925 56.9744L27.5832 59.8019L29.3299 59.7847L29.7265 56.5455C29.8309 55.7136 29.3864 55.5246 28.7719 55.5257H28.2133ZM33.7804 55.5257C33.1278 55.5257 32.6689 55.7576 32.5732 56.5278L32.3028 58.7821C32.2048 59.566 32.6199 59.7847 33.2575 59.7842H33.8161C34.1078 59.7842 34.437 59.7469 34.6808 59.5339C34.8076 59.4234 34.8186 59.3805 34.9869 59.0507H35.0054L34.8613 60.1959H32.2481L32.1224 61.2517H35.2389C35.756 61.2517 36.4956 61.1676 36.608 60.2669L37.1845 55.5612H35.4366L35.3651 56.1699H35.3467C35.236 55.7977 35.0025 55.5246 34.4099 55.5257H33.7804ZM38.6263 55.5257C38.1005 55.583 37.7373 55.8544 37.6532 56.5278L37.5811 57.1004C37.4514 58.1385 38.0821 58.1597 38.7704 58.174L40.2295 58.2095L40.2116 58.3349C40.1955 58.4586 40.1251 58.9424 39.5631 58.943C39.4426 58.943 39.3273 58.9224 39.2385 58.8537C39.1491 58.7913 39.0915 58.6939 39.0944 58.5496H37.3649L37.3292 58.7999C37.2099 59.7561 37.8607 59.8208 38.4458 59.8202H40.5898C41.3242 59.8191 41.794 59.5425 41.8869 58.7999L41.9589 58.2456C42.0794 57.2825 41.379 57.2561 40.7881 57.2435L39.3106 57.2252L39.3469 56.9034C39.412 56.3806 39.8784 56.3846 39.9234 56.3846C39.9908 56.3846 40.0969 56.4053 40.1931 56.474C40.29 56.5427 40.373 56.6509 40.3557 56.8496H42.103L42.1394 56.5278C42.2333 55.7708 41.8511 55.5246 41.1841 55.5257H38.8603C38.779 55.5257 38.7012 55.5172 38.6263 55.5257ZM16.4132 55.5429C15.9186 55.5441 15.2165 55.5973 15.0989 56.545L14.8106 58.8354C14.6999 59.7155 15.2257 59.8563 15.8552 59.8557L18.017 59.838C18.737 59.8374 19.2201 59.5843 19.3141 58.8359L19.6023 56.5455C19.7009 55.7554 19.3129 55.5429 18.5935 55.5435L16.4132 55.5429ZM21.5117 55.5429C20.7397 55.5446 20.259 55.7622 20.161 56.545L19.8727 58.8354C19.7649 59.6943 20.259 59.8386 20.8816 59.8374H23.1154C23.8118 59.8363 24.2788 59.6124 24.3762 58.8354L24.4125 58.5319H22.6646C22.5977 58.8898 22.2939 58.9785 22.1066 58.9785C21.6494 58.9785 21.6465 58.6269 21.6742 58.4059L21.71 58.1196H24.4661L24.6644 56.545C24.7653 55.741 24.3162 55.5429 23.6193 55.5429H21.5117ZM32.1587 55.5612L30.4114 55.579L29.8885 59.7842H31.6364L32.1587 55.5612ZM50.066 56.2947C50.5675 56.2947 50.518 56.7454 50.4984 56.9034L50.3179 58.3172C50.3041 58.4271 50.2435 58.9069 49.7414 58.9069C49.3292 58.9069 49.2802 58.5794 49.3091 58.3527L49.5074 56.8496C49.5391 56.5954 49.6757 56.2959 50.066 56.2947ZM55.0018 56.2947C55.0433 56.2862 55.097 56.2947 55.146 56.2947C55.6481 56.2947 55.5806 56.7454 55.5604 56.9034L55.38 58.2988C55.3667 58.4094 55.3056 58.9069 54.8035 58.9075C54.3913 58.9081 54.3602 58.5794 54.389 58.3527L54.5695 56.8496C54.5971 56.6274 54.713 56.3572 55.0018 56.2947ZM34.8428 56.3131C35.3449 56.3131 35.2954 56.7631 35.2752 56.9212L35.0953 58.3349C35.0815 58.4449 35.0209 58.9247 34.5188 58.9253C34.1066 58.9258 34.0582 58.5977 34.0865 58.3704L34.2842 56.8673C34.3165 56.6125 34.4531 56.3136 34.8434 56.3131H34.8428ZM44.9676 56.3663C45.2593 56.3663 45.4703 56.5381 45.4178 56.9572L45.3815 57.2435H44.3727L44.409 56.8857C44.4487 56.569 44.6822 56.3675 44.9676 56.3663ZM17.3685 56.3846C17.8706 56.3835 17.8152 56.8227 17.8008 56.9389L17.6204 58.4242C17.5945 58.6378 17.546 58.9791 17.0439 58.9791C16.5418 58.9797 16.585 58.6378 16.6115 58.4242L16.792 56.9389C16.8064 56.8227 16.8669 56.3846 17.3685 56.3846ZM22.4127 56.4018C22.7044 56.4018 22.9154 56.5553 22.8629 56.9744L22.8266 57.2607H21.8178L21.8541 56.9212C21.8939 56.6057 22.1273 56.4024 22.4127 56.4018ZM46.8227 60.1598L37.2571 60.1781C37.2571 60.1781 37.2035 60.8967 36.8605 61.2334L46.697 61.2162L46.8227 60.1598ZM31.5822 60.1781L9.17146 60.2136L9.02734 61.2695L31.456 61.2334L31.5822 60.1781Z" fill="#181A21" fill-opacity="0.941"/>
<path d="M33.2938 14.4773V18.1454H33.5821V17.5556C33.8334 17.7016 34.1562 17.7875 34.5188 17.7875C34.7321 17.7875 34.9437 17.7463 35.1489 17.6982L35.1316 17.2332C34.9991 17.3008 34.7396 17.3403 34.5188 17.3403C33.9199 17.3403 33.5636 16.9051 33.5636 16.3382C33.5636 15.7662 33.9222 15.3362 34.501 15.3362C34.7027 15.3362 34.8999 15.3591 35.1132 15.4793L35.1495 15.0144C34.9484 14.936 34.7349 14.8933 34.5188 14.8884C34.1476 14.8884 33.8288 14.984 33.5821 15.1392V14.4773H33.2938Z" fill="#CB9F18"/>
<path d="M33.0235 14.4773L33.0414 15.1575C32.7883 14.9818 32.4458 14.8884 32.051 14.8884C31.8653 14.8884 31.6244 14.9342 31.4203 15.0144L31.456 15.4793C31.6688 15.3597 31.8671 15.3362 32.0688 15.3362C32.6482 15.3362 33.0592 15.7674 33.0592 16.3382C33.0592 16.9057 32.6499 17.3403 32.0504 17.3403C31.8296 17.3403 31.5707 17.3008 31.4382 17.2332L31.4203 17.6982C31.6255 17.7463 31.8371 17.7875 32.0504 17.7875C32.4355 17.7875 32.7825 17.7027 33.0419 17.5373L33.0235 18.1454H33.2939V14.4773H33.0235Z" fill="#E3B80F"/>
</svg>
