<svg width="15" height="24" viewBox="0 0 15 24" fill="none" xmlns="http://www.w3.org/2000/svg">
<path d="M10.3599 0.960007C10.7333 0.53334 11.2533 0.320007 11.9199 0.320007C12.5866 0.320007 13.1333 0.53334 13.5599 0.960007C14.5733 1.92001 14.5733 2.98667 13.5599 4.16001L6.11993 12L13.5599 19.76C14.5733 20.9333 14.5733 22 13.5599 22.96C13.1333 23.3867 12.5999 23.6 11.9599 23.6C11.3199 23.6 10.7866 23.3867 10.3599 22.96L1.31993 13.52C0.893265 13.0933 0.679932 12.5733 0.679932 11.96C0.679932 11.3467 0.893265 10.8267 1.31993 10.4C6.81326 4.69334 9.8266 1.54667 10.3599 0.960007Z" fill="white"/>
</svg>
