<svg width="14" height="14" viewBox="0 0 14 14" fill="none" xmlns="http://www.w3.org/2000/svg">
<path d="M3.73788 14H1.01327V5.24023H3.73788V14ZM2.36093 4.06836C1.51132 4.06836 0.808195 3.33594 0.808195 2.45703C0.808195 1.60742 1.51132 0.904297 2.36093 0.904297C3.23984 0.904297 3.94296 1.60742 3.94296 2.45703C3.94296 3.33594 3.23984 4.06836 2.36093 4.06836ZM13.9039 14H11.2086V9.75195C11.2086 8.72656 11.1793 7.4375 9.77304 7.4375C8.36679 7.4375 8.16171 8.52148 8.16171 9.66406V14H5.4371V5.24023H8.04452V6.44141H8.07382C8.45468 5.76758 9.33359 5.03516 10.6519 5.03516C13.4059 5.03516 13.9332 6.85156 13.9332 9.19531V14H13.9039Z" fill="white"/>
<a href="https://www.figma.com/design/PzQUNVEIeMrv8HjdXbjYra?node-id=19-2551">
<rect fill="black" fill-opacity="0" x="0.178312" y="-1.125" width="13.125" height="17.25"/>
</a>
</svg>
