<svg width="70" height="70" viewBox="0 0 70 70" fill="none" xmlns="http://www.w3.org/2000/svg">
<g clip-path="url(#clip0_105_25)">
<path fill-rule="evenodd" clip-rule="evenodd" d="M35 4.52527C51.814 4.52527 65.4962 18.2078 65.4962 35.0218C65.4962 51.7926 51.814 65.5183 35 65.5183C18.2292 65.5183 4.50385 51.7926 4.50385 35.0218C4.50385 18.2078 18.2292 4.52527 35 4.52527Z" fill="#E6BF3E"/>
<path fill-rule="evenodd" clip-rule="evenodd" d="M26.8076 16.192C26.8076 16.192 29.9387 11.9885 34.6997 11.9028C39.461 11.7742 42.1625 14.8192 42.1625 14.8192L58.5044 33.1342C58.5044 33.1342 61.8501 36.3081 60.6067 39.9113C59.3625 43.5142 52.5428 51.2777 35.386 51.6205C18.186 51.9637 10.9803 42.9567 10.9803 42.9567C10.9803 42.9567 7.46315 38.2811 10.9803 34.2066C14.4546 30.132 26.8076 16.192 26.8076 16.192Z" fill="#32593C"/>
<path fill-rule="evenodd" clip-rule="evenodd" d="M35.386 17.736C35.386 17.736 32.3406 17.2643 30.0673 19.6662C27.8368 22.0252 28.0086 25.1563 28.0086 25.1563L30.0244 22.2823C30.0244 22.2823 30.2815 22.1109 30.153 21.7249C30.0244 21.3817 29.9812 21.296 29.9812 21.296V20.7382L38.6882 20.6525C38.6882 20.6525 41.0472 20.5668 41.0472 22.9687C41.0472 25.3706 39.4174 25.4991 39.4174 25.4991C39.4174 25.4991 41.9482 26.0137 41.9482 28.802C41.9482 31.6328 38.9457 32.362 38.9457 32.362L32.426 32.4049C32.426 32.4049 31.8682 31.976 32.4688 31.7185C33.112 31.5039 33.3694 31.3753 33.3694 31.0754V30.7322C33.3694 30.7322 31.9539 30.5608 30.9672 29.317C29.9808 28.116 30.1951 26.143 30.1951 26.143L28.9085 26.1002L28.0935 27.3443C28.0935 27.3443 28.4796 30.4326 29.9808 31.8049C31.4821 33.1773 32.5113 34.4643 36.0713 34.2925C39.632 34.164 42.2478 32.3195 42.2478 32.3195L42.9345 31.7189C42.9345 31.7189 43.192 31.2043 43.7062 31.5043C44.2212 31.7617 43.192 32.8341 43.192 32.8341C43.192 32.8341 41.0472 35.7506 35.5139 36.0938C30.0237 36.437 26.1634 30.6897 26.4209 30.3894C26.6351 30.1319 25.5631 31.4185 26.1637 31.7189C26.764 32.0621 26.4641 32.5338 26.4641 32.5338L22.4323 32.5766C22.4323 32.5766 22.1749 32.7052 22.1749 32.1906C22.1749 31.7189 22.6037 31.7617 22.6037 31.7617C22.6037 31.7617 24.0622 31.7189 24.5339 30.9468C25.0056 30.2176 25.7349 29.1024 25.7349 29.1024C25.7349 29.1024 25.306 26.6576 25.3917 25.6281C25.4774 24.5985 26.2494 19.1512 30.4529 17.35C34.6993 15.5916 38.9032 17.0068 38.9032 17.0068C38.9032 17.0068 39.6749 17.4357 40.2323 17.0068C40.7897 16.5779 41.0047 16.149 41.4333 16.964C41.8197 17.7789 42.6774 19.1087 42.6774 19.1087C42.6774 19.1087 43.0631 20.3097 41.3483 19.323C39.5892 18.3367 36.7584 17.736 36.7584 17.736H35.386ZM31.9117 26.1427H33.3702V29.1024C33.3702 29.1024 32.5549 28.9306 32.2121 28.2017C31.8689 27.5154 31.9117 26.1427 31.9117 26.1427ZM29.8098 24.9421L30.4105 24.9849C30.4105 24.9849 30.7536 23.9982 31.5686 23.3979C32.4263 22.7973 33.3702 22.5402 33.3702 22.5402C33.3702 22.5402 33.5844 21.7681 32.9841 21.811C32.341 21.8538 31.8264 21.8967 31.8264 21.8967C31.8264 21.8967 31.4832 21.8967 31.2686 22.3684C31.0111 22.8401 29.8098 24.9421 29.8098 24.9421ZM31.9546 24.8989H33.3269V23.3979C33.3269 23.3979 32.7691 23.4836 32.3835 24.0411C31.9546 24.5985 31.9546 24.8989 31.9546 24.8989ZM35.2143 23.0976V24.8992H37.9593C37.9593 24.8992 39.0317 24.6417 39.0317 23.2265C39.0317 21.8542 37.9593 21.7253 37.9593 21.7253H35.2143V22.4545L36.7584 22.4973C36.7584 22.4973 37.1876 22.0256 37.659 22.583C38.1307 23.1405 38.1732 23.4408 38.1732 23.4408C38.1732 23.4408 38.2597 24.4271 37.3158 23.5694C36.3727 22.7116 35.2143 23.0976 35.2143 23.0976ZM35.3003 26.1855L35.386 29.5312C35.386 29.5312 36.6295 29.7887 37.5733 28.9734C38.5168 28.1585 38.3025 28.2871 38.3025 28.2871C38.3025 28.2871 38.4311 28.1585 38.7318 28.3728C39.0317 28.6299 38.56 29.2305 38.56 29.2305C38.56 29.2305 38.26 29.7451 37.359 30.2169C36.4584 30.6458 35.4717 30.7315 35.4717 30.7315L35.4285 31.2036C35.4285 31.2036 36.0292 31.5467 36.9726 31.5035C37.8733 31.4607 38.1307 31.375 38.1307 31.375C38.1307 31.375 39.9323 30.8604 39.9323 28.7156C39.9323 26.6137 37.8308 26.1848 37.8308 26.1848H35.3003V26.1855Z" fill="#D0D1D3"/>
<path fill-rule="evenodd" clip-rule="evenodd" d="M26.0355 14.7334C26.0355 14.7334 29.5527 10.4871 34.6568 10.3585C39.7609 10.23 42.806 13.4039 42.806 13.4039L60.5634 32.8341C60.5634 32.8341 63.6092 36.4798 62.2793 40.383C60.9495 44.2861 53.8723 53.0363 35.386 53.3791C16.8993 53.7652 9.13584 43.7716 9.13584 43.7716C9.13584 43.7716 5.48978 37.8522 9.26439 33.4344C13.0394 29.0595 26.0355 14.7334 26.0355 14.7334ZM26.8933 16.3204C26.8933 16.3204 29.9816 12.1598 34.6997 12.0741C39.4177 11.9455 42.0768 14.9909 42.0768 14.9909L58.2901 33.1341C58.2901 33.1341 61.5926 36.2652 60.3492 39.8252C59.1475 43.4284 52.3711 51.1058 35.386 51.4493C18.3578 51.7922 11.1946 42.8281 11.1946 42.8281C11.1946 42.8281 7.72027 38.1957 11.1946 34.164C14.6688 30.1322 26.8933 16.3204 26.8933 16.3204Z" fill="#D0D1D3"/>
<path fill-rule="evenodd" clip-rule="evenodd" d="M20.2879 41.7986L18.5724 44.0291L10.9803 38.5818L11.2806 38.1961C11.4092 38.2815 11.5809 38.3675 11.7523 38.4961C11.9666 38.5818 12.0955 38.6679 12.1812 38.6679C12.3526 38.7107 12.4816 38.7107 12.6101 38.6679C12.6958 38.625 12.8247 38.5393 12.9104 38.4104L16.299 33.2206C16.3847 33.092 16.4276 33.0063 16.4704 32.8778C16.4704 32.7492 16.4276 32.6203 16.299 32.4485C16.1981 32.2953 16.0832 32.1517 15.9559 32.0196C15.7841 31.8482 15.6555 31.7625 15.5698 31.6764L15.8269 31.2476L20.3736 34.5076L20.0733 34.8936C19.9447 34.8508 19.8158 34.7651 19.6015 34.6365C19.4298 34.5504 19.3012 34.4647 19.1298 34.4219C18.958 34.3362 18.7866 34.3362 18.7009 34.379C18.5806 34.4564 18.4781 34.5587 18.4006 34.679L15.2266 39.4832C15.0947 39.65 14.993 39.8386 14.9263 40.0406C14.8835 40.2124 14.8835 40.3838 14.9263 40.5127C14.9695 40.6412 15.0981 40.7698 15.2695 40.9416C15.4409 41.0701 15.6552 41.2419 15.9987 41.499C16.299 41.7136 16.599 41.9283 16.9422 42.0997C17.2425 42.2711 17.5 42.3568 17.7142 42.3139C18.0146 42.3139 18.3577 42.1854 18.7866 42.014C19.1558 41.8677 19.5141 41.6957 19.859 41.499L20.2879 41.7986ZM29.6812 39.8252C29.9387 40.2973 30.1105 40.8119 30.1533 41.4126C30.239 41.97 30.1105 42.5703 29.8959 43.2138C29.6904 43.7912 29.3856 44.3283 28.9952 44.8008C28.6092 45.2301 28.18 45.6157 27.6654 45.8732C27.1076 46.1732 26.5501 46.3449 25.9066 46.4306C25.3063 46.4735 24.62 46.4306 23.8908 46.2164C23.2901 46.0446 22.7327 45.7871 22.3038 45.444C21.8375 45.1431 21.4541 44.7302 21.1885 44.243C20.8886 43.7713 20.7168 43.2563 20.6739 42.6989C20.6311 42.1414 20.7168 41.5408 20.9311 40.8973C21.1882 40.2541 21.4889 39.6963 21.9177 39.2674C22.3466 38.7957 22.8184 38.4097 23.3329 38.1526C23.8908 37.8951 24.4482 37.7665 25.0913 37.6805C25.692 37.6376 26.2926 37.7233 26.9358 37.8951C27.5361 38.0669 28.0939 38.3243 28.5656 38.6671C29.0377 39.0107 29.3813 39.3964 29.6812 39.8252ZM26.1212 45.1011C26.4216 44.8008 26.6787 44.4576 26.9362 44.0287C27.1504 43.6431 27.365 43.171 27.5793 42.6135C27.7079 42.1843 27.8368 41.7129 27.9653 41.284C28.051 40.8119 28.051 40.3834 28.0082 39.997C27.9653 39.6113 27.8368 39.3107 27.665 39.0107C27.4507 38.7532 27.1504 38.5386 26.7212 38.41C26.0348 38.2386 25.3917 38.41 24.791 38.9678C24.1907 39.4824 23.6758 40.3402 23.2897 41.4983C23.1183 41.9704 22.9894 42.485 22.9037 42.9135C22.818 43.3856 22.818 43.8141 22.8609 44.1577C22.9037 44.5437 23.0326 44.8869 23.2469 45.1444C23.4187 45.4018 23.7186 45.5732 24.1047 45.6589C24.4907 45.7875 24.8767 45.7875 25.2199 45.6589C25.5638 45.5729 25.8638 45.3582 26.1212 45.1011ZM38.3453 41.0266H37.9168C37.8311 40.6405 37.6161 40.2545 37.3594 39.8688C37.1019 39.4396 36.8869 39.2253 36.6727 39.2253C36.5441 39.1825 36.4152 39.1825 36.2434 39.1825H35.5142L35.6431 45.8311C35.6431 45.9596 35.6431 46.0886 35.6856 46.1739C35.7713 46.3024 35.8574 46.3885 35.9856 46.4314C36.0713 46.4742 36.2006 46.5171 36.372 46.5599C36.5437 46.5599 36.7144 46.6028 36.8437 46.6028V47.0745L32.5113 47.1602V46.6885C32.5974 46.6885 32.7684 46.6456 32.9402 46.6456C33.1548 46.6028 33.2834 46.6028 33.3262 46.5599C33.4548 46.4742 33.5837 46.3882 33.6265 46.3024C33.6694 46.1739 33.6694 46.0453 33.6694 45.9168L33.5837 39.2253H32.8545C32.6827 39.2682 32.5541 39.2682 32.4256 39.2682C32.211 39.311 31.9963 39.5685 31.7392 39.9545C31.525 40.3838 31.3532 40.7694 31.2246 41.1558H30.7958L30.7529 38.7111L38.3021 38.5825L38.3453 41.0266ZM48.5107 36.2224C48.3411 36.2833 48.182 36.3702 48.039 36.4799C47.8463 36.5584 47.6714 36.675 47.5248 36.8227C47.3959 36.9512 47.353 37.1659 47.353 37.4233C47.353 37.6805 47.3955 38.0665 47.5248 38.5382L48.339 41.4976C48.554 42.3982 48.4247 43.1702 47.9533 43.8566C47.4391 44.5858 46.7099 45.1008 45.68 45.4011C44.479 45.7439 43.4498 45.7439 42.6774 45.4011C41.8625 45.1008 41.3483 44.4569 41.1333 43.5566L40.0609 39.4817C40.0184 39.3099 39.9323 39.2242 39.8891 39.1389C39.8034 39.0532 39.6749 39.0103 39.5034 38.9671H39.0742C38.9456 38.9671 38.8174 39.01 38.6885 39.01L38.6028 38.5807L43.0209 37.3369L43.1067 37.7658C43.0209 37.8087 42.8924 37.8515 42.7635 37.8944C42.6349 37.9801 42.506 38.0229 42.3778 38.109C42.2682 38.1859 42.1797 38.289 42.1203 38.4089C42.1203 38.5375 42.1203 38.6664 42.1628 38.795L43.1927 42.8271C43.407 43.5991 43.7502 44.1566 44.2219 44.3712C44.6936 44.6283 45.2511 44.6715 45.981 44.4565C46.667 44.2851 47.1387 43.942 47.4394 43.4274C47.7394 42.9124 47.7819 42.2693 47.568 41.4972L46.8388 38.7953C46.7102 38.3236 46.5813 37.9804 46.4531 37.7658C46.3242 37.5512 46.1956 37.3801 46.0239 37.3369C45.8949 37.2512 45.6807 37.2512 45.4232 37.2512C45.1232 37.2512 44.9515 37.2512 44.8233 37.2941L44.7376 36.8648L48.3833 35.7928L48.5107 36.2224ZM55.3304 41.0266C54.8162 41.3269 54.3012 41.5411 53.7863 41.6697C53.272 41.8415 52.8428 41.9272 52.4571 41.97L52.2421 42.5275L51.7279 42.8278L50.2695 40.297L50.7837 39.9967C51.0412 40.2113 51.3419 40.3827 51.6418 40.5116C51.985 40.6834 52.285 40.8116 52.671 40.8973C53.0142 40.983 53.4002 41.0258 53.7434 40.983C54.1291 40.9401 54.5151 40.8112 54.9015 40.5973C55.459 40.2541 55.8021 39.9109 55.9739 39.5249C56.145 39.1392 56.145 38.7957 55.9739 38.4525C55.845 38.1954 55.5875 38.0236 55.2447 37.9808C54.9015 37.9379 54.4298 37.9808 53.8291 38.1093C53.4435 38.2379 53.0999 38.324 52.7999 38.4093C52.4568 38.495 52.1568 38.5811 51.8557 38.6239C51.2126 38.7525 50.6548 38.7525 50.1834 38.5382C49.7117 38.3665 49.3685 38.0236 49.111 37.5948C48.9825 37.2944 48.8968 36.9941 48.8968 36.6509C48.9393 36.3506 49.0253 36.0074 49.1967 35.6214C49.3253 35.2782 49.5824 34.935 49.9259 34.5918C50.2691 34.2062 50.6977 33.9055 51.1701 33.6484C51.6418 33.348 52.1136 33.1766 52.585 33.0481C53.0567 32.9195 53.4431 32.8338 53.7431 32.8338L53.9148 32.3192L54.473 32.0189L55.8029 34.3783L55.2879 34.6783C55.0304 34.5069 54.7305 34.3351 54.4305 34.1208C54.1576 33.9647 53.8703 33.8354 53.5724 33.7348C53.2724 33.6491 52.9717 33.6491 52.6289 33.6919C52.3282 33.6919 51.9858 33.8205 51.6422 34.0351C51.213 34.2497 50.913 34.5497 50.7416 34.9357C50.613 35.2786 50.613 35.6221 50.7416 35.9224C50.9134 36.1795 51.1273 36.3513 51.4708 36.3942C51.8143 36.437 52.2425 36.3942 52.8432 36.2656C53.1863 36.1799 53.5299 36.0938 53.8723 35.9656C54.2155 35.8799 54.5155 35.7939 54.8165 35.751C55.5025 35.6225 56.06 35.6225 56.5324 35.751C57.0042 35.9228 57.3898 36.2656 57.6473 36.7374C57.8191 37.0377 57.8616 37.3809 57.8616 37.7669C57.8191 38.1529 57.733 38.539 57.5616 38.8821C57.3474 39.2678 57.0467 39.6542 56.7042 39.997C56.3603 40.3402 55.8886 40.6834 55.3304 41.0266Z" fill="#D0D1D3"/>
<path fill-rule="evenodd" clip-rule="evenodd" d="M35 3.10974C52.5857 3.10974 66.9117 17.4358 66.9117 35.0215C66.9117 52.5643 52.5857 66.8904 35 66.8904C17.4143 66.8904 3.08826 52.5643 3.08826 35.0215C3.08826 17.4358 17.4143 3.10974 35 3.10974ZM35 4.73994C51.6847 4.73994 65.2819 18.3368 65.2819 35.0218C65.2819 51.6637 51.6851 65.2609 35 65.2609C18.3578 65.2609 4.76094 51.6641 4.76094 35.0218C4.76094 18.3368 18.3578 4.73994 35 4.73994Z" fill="#D0D1D3"/>
</g>
<defs>
<clipPath id="clip0_105_25">
<rect width="70" height="70" fill="white"/>
</clipPath>
</defs>
</svg>
