<svg width="15" height="24" viewBox="0 0 15 24" fill="none" xmlns="http://www.w3.org/2000/svg">
<path d="M4.61995 0.960007L13.66 10.4C14.0866 10.8267 14.3 11.3467 14.3 11.96C14.3 12.5733 14.0866 13.0933 13.66 13.52L4.61995 22.96C4.19328 23.3867 3.65995 23.6 3.01995 23.6C2.37995 23.6 1.84662 23.3867 1.41995 22.96C0.459951 22 0.459951 20.9333 1.41995 19.76L8.85995 12L1.41995 4.16001C0.459951 2.98667 0.459951 1.92001 1.41995 0.960007C1.84662 0.53334 2.39328 0.320007 3.05995 0.320007C3.72662 0.320007 4.24662 0.53334 4.61995 0.960007Z" fill="white"/>
</svg>
