<svg width="16" height="16" viewBox="0 0 16 16" fill="none" xmlns="http://www.w3.org/2000/svg">
<path d="M6.86997 1.54C5.83664 1.54 4.89497 1.79 4.04497 2.29C3.19497 2.79 2.51164 3.47333 1.99497 4.34C1.4783 5.20666 1.21997 6.14833 1.21997 7.165C1.21997 8.18166 1.4783 9.12333 1.99497 9.99C2.51164 10.8567 3.19497 11.54 4.04497 12.04C4.89497 12.54 5.83664 12.79 6.86997 12.79C7.5033 12.79 8.11997 12.6817 8.71997 12.465C9.31997 12.2483 9.86997 11.9567 10.37 11.59L12.72 13.89C12.82 14.0233 12.9616 14.09 13.145 14.09C13.3283 14.09 13.4783 14.0317 13.595 13.915C13.7116 13.7983 13.77 13.6483 13.77 13.465C13.77 13.2817 13.7033 13.14 13.57 13.04L11.27 10.69C11.6366 10.19 11.9283 9.64 12.145 9.04C12.3616 8.44 12.47 7.82333 12.47 7.19C12.47 6.15666 12.22 5.20666 11.72 4.34C11.22 3.47333 10.5366 2.79 9.66997 2.29C8.8033 1.79 7.86997 1.54 6.86997 1.54ZM6.86997 2.79C7.66997 2.79 8.4033 2.99 9.06997 3.39C9.73664 3.79 10.2616 4.32333 10.645 4.99C11.0283 5.65666 11.22 6.38166 11.22 7.165C11.22 7.94833 11.0283 8.68166 10.645 9.365C10.2616 10.0483 9.73664 10.5817 9.06997 10.965C8.4033 11.3483 7.66997 11.54 6.86997 11.54C6.06997 11.54 5.33664 11.3483 4.66997 10.965C4.0033 10.5817 3.46997 10.0483 3.06997 9.365C2.66997 8.68166 2.46997 7.94833 2.46997 7.165C2.46997 6.38166 2.66997 5.65666 3.06997 4.99C3.46997 4.32333 4.0033 3.79 4.66997 3.39C5.33664 2.99 6.06997 2.79 6.86997 2.79Z" fill="white"/>
</svg>
