<svg width="16" height="13" viewBox="0 0 16 13" fill="none" xmlns="http://www.w3.org/2000/svg">
<path d="M14.3247 3.32812C14.3247 3.47461 14.3247 3.5918 14.3247 3.73828C14.3247 7.81055 11.2485 12.4688 5.59424 12.4688C3.83643 12.4688 2.2251 11.9707 0.877441 11.0918C1.11182 11.1211 1.34619 11.1504 1.60986 11.1504C3.04541 11.1504 4.36377 10.6523 5.41846 9.83203C4.0708 9.80273 2.92822 8.92383 2.54736 7.69336C2.75244 7.72266 2.92822 7.75195 3.1333 7.75195C3.39697 7.75195 3.68994 7.69336 3.92432 7.63477C2.51807 7.3418 1.46338 6.11133 1.46338 4.61719V4.58789C1.87354 4.82227 2.37158 4.93945 2.86963 4.96875C2.02002 4.41211 1.49268 3.47461 1.49268 2.41992C1.49268 1.83398 1.63916 1.30664 1.90283 0.867188C3.42627 2.71289 5.71143 3.94336 8.26025 4.08984C8.20166 3.85547 8.17236 3.62109 8.17236 3.38672C8.17236 1.6875 9.54932 0.310547 11.2485 0.310547C12.1274 0.310547 12.9185 0.662109 13.5044 1.27734C14.1782 1.13086 14.8521 0.867188 15.438 0.515625C15.2036 1.24805 14.7349 1.83398 14.0903 2.21484C14.7056 2.15625 15.3208 1.98047 15.8481 1.74609C15.438 2.36133 14.9106 2.88867 14.3247 3.32812Z" fill="white"/>
<a href="https://www.figma.com/design/PzQUNVEIeMrv8HjdXbjYra?node-id=19-2551">
<rect fill="black" fill-opacity="0" x="0.1875" y="-1.125" width="15" height="17.25"/>
</a>
</svg>
