<svg width="61" height="61" viewBox="0 0 61 61" fill="none" xmlns="http://www.w3.org/2000/svg">
<g clip-path="url(#clip0_72_1255)">
<g clip-path="url(#clip1_72_1255)">
<g clip-path="url(#clip2_72_1255)">
<path d="M30.5 2.48438V7.17188" stroke="#FF5CF4" stroke-width="3" stroke-miterlimit="10" stroke-linecap="round" stroke-linejoin="round"/>
<path d="M49.25 2.48438L44.5625 7.17188" stroke="#FF5CF4" stroke-width="3" stroke-miterlimit="10" stroke-linecap="round" stroke-linejoin="round"/>
<path d="M15.9738 36.8013C14.8072 35.5462 14.0938 33.8642 14.0938 32.0156C14.0938 30.887 14.3596 29.8206 14.8323 28.8753L19.5198 19.5003C20.6732 17.1935 23.0579 15.6094 25.8125 15.6094H18.7812C16.0266 15.6094 13.642 17.1935 12.4885 19.5003L7.80102 28.8753C7.3284 29.8206 7.0625 30.887 7.0625 32.0156C7.0625 33.8642 7.77594 35.5462 8.94254 36.8013L27.0658 56.2998C27.9218 57.2208 29.1436 57.7968 30.5 57.7968C31.8564 57.7968 33.0782 57.2208 33.9342 56.2999L34.0156 56.2122L15.9738 36.8013Z" fill="#EEF1FB"/>
<path d="M48.5115 19.5003L53.199 28.8753C53.6716 29.8204 53.9375 30.887 53.9375 32.0156C53.9375 33.8642 53.2241 35.5463 52.0575 36.8014L33.9342 56.2999C33.0782 57.2208 31.8564 57.7968 30.5 57.7968C29.1436 57.7968 27.9218 57.2208 27.0658 56.2999L8.94254 36.8014C7.77594 35.5463 7.0625 33.8642 7.0625 32.0156C7.0625 30.887 7.3284 29.8204 7.80102 28.8753L12.4885 19.5003C13.642 17.1934 16.0266 15.6094 18.7812 15.6094H42.2188C44.9734 15.6094 47.358 17.1934 48.5115 19.5003Z" stroke="#405FF2" stroke-width="3" stroke-miterlimit="10" stroke-linecap="round" stroke-linejoin="round"/>
<path d="M11.75 2.48438L16.4375 7.17188" stroke="#FF5CF4" stroke-width="3" stroke-miterlimit="10" stroke-linecap="round" stroke-linejoin="round"/>
<path d="M17.8849 29.6719H43.1151" stroke="#405FF2" stroke-width="3" stroke-miterlimit="10" stroke-linecap="round" stroke-linejoin="round"/>
<path d="M25.8125 24.9844L30.5 29.6718L35.1875 24.9844" stroke="#405FF2" stroke-width="3" stroke-miterlimit="10" stroke-linecap="round" stroke-linejoin="round"/>
<path d="M30.5 43.7345V29.8713" stroke="#405FF2" stroke-width="3" stroke-miterlimit="10" stroke-linecap="round" stroke-linejoin="round"/>
</g>
</g>
</g>
<defs>
<clipPath id="clip0_72_1255">
<rect width="60" height="60" fill="white" transform="translate(0.5 0.140625)"/>
</clipPath>
<clipPath id="clip1_72_1255">
<rect width="60" height="60" fill="white" transform="translate(0.5 0.140625)"/>
</clipPath>
<clipPath id="clip2_72_1255">
<rect width="60" height="60" fill="white" transform="translate(0.5 0.140625)"/>
</clipPath>
</defs>
</svg>
