<svg width="61" height="61" viewBox="0 0 61 61" fill="none" xmlns="http://www.w3.org/2000/svg">
<g clip-path="url(#clip0_72_1283)">
<g clip-path="url(#clip1_72_1283)">
<path d="M24.0465 4.59375C20.3452 4.59375 16.9904 6.77145 15.4836 10.152L9.38656 23.8312C5.73148 24.0824 2.84375 27.1249 2.84375 30.8437V36.2344C2.84375 39.4704 5.46711 42.0937 8.70312 42.0937H10.3092C10.3179 41.6428 10.3293 41.192 10.3438 40.7411C9.9623 39.9636 9.74727 39.0896 9.74727 38.1651L9.64062 34.0078C9.64062 30.9333 10.2662 29.75 12.5483 29.2903C13.6331 29.0717 14.5413 28.3326 14.9858 27.3192L22.5148 10.152C24.0215 6.77145 27.3764 4.59375 31.0777 4.59375H24.0465Z" fill="#EEF1FB"/>
<path d="M8.70312 42.0937C5.46711 42.0937 2.84375 39.4704 2.84375 36.2344V30.8437C2.84375 27.1249 5.73148 24.0824 9.38656 23.8312L15.4836 10.152C16.9903 6.77145 20.3451 4.59375 24.0465 4.59375H34.7217C38.2441 4.59375 41.4692 6.56813 43.0711 9.70524L46.0859 15.6094M58.1562 30.8437C58.1562 26.9605 55.0082 23.8125 51.125 23.8125H19.1328M28.7422 15.6094V4.71094M32.9609 42.0937H27.6873M21.242 37.4062C18.6532 37.4062 16.5545 39.5049 16.5545 42.0937C16.5545 44.6825 18.6532 46.7812 21.242 46.7812C23.8307 46.7812 25.9295 44.6825 25.9295 42.0937C25.9295 39.5049 23.8309 37.4062 21.242 37.4062Z" stroke="#405FF2" stroke-width="3" stroke-miterlimit="10" stroke-linecap="round" stroke-linejoin="round"/>
<path d="M58.1562 41.7423C58.1562 46.2404 54.5097 49.9454 50.0117 49.9454C45.5136 49.9454 41.8671 46.2989 41.8671 41.8008C41.8671 37.3026 45.5722 33.6562 50.0703 33.6562M44.0351 48.2462L36.5938 55.6876" stroke="#FF5CF3" stroke-width="3" stroke-miterlimit="10" stroke-linecap="round" stroke-linejoin="round"/>
</g>
</g>
<defs>
<clipPath id="clip0_72_1283">
<rect width="60" height="60" fill="white" transform="translate(0.5 0.140625)"/>
</clipPath>
<clipPath id="clip1_72_1283">
<rect width="60" height="60" fill="white" transform="translate(0.5 0.140625)"/>
</clipPath>
</defs>
</svg>
